<svg width="103" height="38" viewBox="0 0 103 38" fill="none" xmlns="http://www.w3.org/2000/svg">
<path d="M19.262 38C29.9002 38 38.5241 29.4934 38.5241 19C38.5241 8.50659 29.9002 0 19.262 0C8.62391 0 0 8.50659 0 19C0 29.4934 8.62391 38 19.262 38Z" fill="#EEAF30"/>
<path d="M48.6194 33.7361C48.6194 33.4633 48.6598 33.2264 48.7405 33.0213C48.8212 32.8182 48.9262 32.649 49.0595 32.5155C49.1907 32.3821 49.3441 32.2806 49.5157 32.2129C49.6873 32.1452 49.8649 32.1113 50.0446 32.1113C50.4644 32.1113 50.7874 32.2408 51.0115 32.4996C51.2356 32.7585 51.3486 33.1527 51.3486 33.6824V33.774C51.3486 33.8118 51.3466 33.8457 51.3426 33.8775H49.2028C49.227 34.1981 49.3199 34.441 49.4854 34.6063C49.6489 34.7716 49.9053 34.8552 50.2545 34.8552C50.4503 34.8552 50.6158 34.8393 50.7511 34.8054C50.8843 34.7716 50.9873 34.7397 51.0539 34.7078L51.1326 35.1698C51.064 35.2056 50.9449 35.2435 50.7753 35.2833C50.6057 35.3231 50.412 35.343 50.196 35.343C49.9234 35.343 49.6873 35.3032 49.4894 35.2216C49.2916 35.1399 49.1281 35.0284 48.9989 34.8871C48.8697 34.7457 48.7748 34.5764 48.7143 34.3813C48.6517 34.1862 48.6214 33.9711 48.6214 33.7381L48.6194 33.7361ZM50.7652 33.4335C50.7693 33.1846 50.7067 32.9795 50.5755 32.8202C50.4442 32.6609 50.2666 32.5793 50.0385 32.5793C49.9093 32.5793 49.7963 32.6032 49.6994 32.6529C49.6005 32.7027 49.5177 32.7664 49.4491 32.8461C49.3804 32.9257 49.3279 33.0153 49.2896 33.1189C49.2512 33.2224 49.227 33.326 49.2149 33.4335H50.7652Z" fill="#575756"/>
<path d="M52.4529 32.2764C52.5801 32.2445 52.7516 32.2107 52.9636 32.1749C53.1756 32.139 53.4198 32.1211 53.6964 32.1211C53.9447 32.1211 54.1506 32.1549 54.3161 32.2246C54.4796 32.2943 54.6108 32.3899 54.7097 32.5153C54.8087 32.6388 54.8773 32.7881 54.9177 32.9634C54.958 33.1366 54.9782 33.3297 54.9782 33.5388V35.2692H54.4191V33.6563C54.4191 33.4671 54.4069 33.3039 54.3807 33.1705C54.3545 33.037 54.3121 32.9275 54.2515 32.8439C54.1909 32.7603 54.1102 32.7005 54.0113 32.6627C53.9104 32.6249 53.7872 32.6069 53.6378 32.6069C53.5773 32.6069 53.5147 32.6089 53.4521 32.6129C53.3875 32.6169 53.327 32.6209 53.2684 32.6269C53.2099 32.6328 53.1574 32.6388 53.113 32.6468C53.0666 32.6547 53.0343 32.6607 53.0141 32.6647V35.2672H52.4549V32.2744L52.4529 32.2764Z" fill="#575756"/>
<path d="M56.0278 33.7361C56.0278 33.4633 56.0682 33.2264 56.149 33.0213C56.2297 32.8182 56.3347 32.649 56.4679 32.5155C56.5991 32.3821 56.7525 32.2806 56.9241 32.2129C57.0957 32.1452 57.2733 32.1113 57.453 32.1113C57.8729 32.1113 58.1959 32.2408 58.4199 32.4996C58.644 32.7585 58.7571 33.1527 58.7571 33.6824V33.774C58.7571 33.8118 58.755 33.8457 58.751 33.8775H56.6112C56.6355 34.1981 56.7283 34.441 56.8938 34.6063C57.0573 34.7716 57.3137 34.8552 57.6629 34.8552C57.8588 34.8552 58.0243 34.8393 58.1595 34.8054C58.2928 34.7716 58.3957 34.7397 58.4623 34.7078L58.5411 35.1698C58.4724 35.2056 58.3533 35.2435 58.1838 35.2833C58.0142 35.3231 57.8204 35.343 57.6044 35.343C57.3319 35.343 57.0957 35.3032 56.8979 35.2216C56.7 35.1399 56.5365 35.0284 56.4073 34.8871C56.2781 34.7457 56.1833 34.5764 56.1227 34.3813C56.0601 34.1862 56.0299 33.9711 56.0299 33.7381L56.0278 33.7361ZM58.1737 33.4335C58.1777 33.1846 58.1151 32.9795 57.9839 32.8202C57.8527 32.6609 57.6751 32.5793 57.4469 32.5793C57.3178 32.5793 57.2047 32.6032 57.1078 32.6529C57.0089 32.7027 56.9261 32.7664 56.8575 32.8461C56.7889 32.9257 56.7364 33.0153 56.698 33.1189C56.6597 33.2224 56.6355 33.326 56.6233 33.4335H58.1737Z" fill="#575756"/>
<path d="M61.016 32.123C61.0644 32.123 61.1189 32.125 61.1815 32.131C61.2441 32.137 61.3047 32.145 61.3652 32.1549C61.4258 32.1649 61.4803 32.1748 61.5308 32.1848C61.5812 32.1947 61.6176 32.2027 61.6418 32.2107L61.5449 32.6905C61.5005 32.6746 61.4278 32.6567 61.3249 32.6348C61.2219 32.6129 61.0907 32.6029 60.9312 32.6029C60.8262 32.6029 60.7233 32.6129 60.6224 32.6348C60.5194 32.6567 60.4528 32.6706 60.4205 32.6786V35.2691H59.8613V32.3182C59.9925 32.2704 60.1581 32.2266 60.3539 32.1848C60.5497 32.143 60.7697 32.123 61.014 32.123H61.016Z" fill="#575756"/>
<path d="M64.4396 34.9625C64.3912 34.9944 64.2983 35.0342 64.1611 35.084C64.0238 35.1337 63.8623 35.1576 63.6766 35.1576C63.4909 35.1576 63.3112 35.1278 63.1457 35.068C62.9801 35.0083 62.8348 34.9167 62.7096 34.7932C62.5845 34.6698 62.4876 34.5145 62.4149 34.3273C62.3422 34.1421 62.3059 33.9211 62.3059 33.6642C62.3059 33.4392 62.3402 33.2321 62.4089 33.045C62.4775 32.8578 62.5764 32.6945 62.7056 32.5591C62.8348 32.4237 62.9943 32.3162 63.184 32.2385C63.3718 32.1609 63.5837 32.123 63.8199 32.123C64.0803 32.123 64.3084 32.141 64.5022 32.1788C64.696 32.2166 64.8595 32.2505 64.9927 32.2823V35.0322C64.9927 35.5061 64.8676 35.8506 64.6193 36.0636C64.371 36.2767 63.9935 36.3842 63.4888 36.3842C63.293 36.3842 63.1073 36.3683 62.9337 36.3364C62.7601 36.3046 62.6087 36.2667 62.4795 36.2229L62.5825 35.743C62.6955 35.7868 62.8328 35.8247 62.9943 35.8585C63.1558 35.8924 63.3253 35.9083 63.503 35.9083C63.836 35.9083 64.0743 35.8426 64.2216 35.7132C64.367 35.5837 64.4417 35.3747 64.4417 35.0899V34.9605L64.4396 34.9625ZM64.4336 32.6746C64.3771 32.6587 64.3024 32.6447 64.2075 32.6308C64.1126 32.6169 63.9854 32.6109 63.826 32.6109C63.5252 32.6109 63.295 32.7085 63.1315 32.9016C62.97 33.0948 62.8873 33.3516 62.8873 33.6722C62.8873 33.8494 62.9095 34.0027 62.9559 34.1282C63.0023 34.2556 63.0649 34.3592 63.1416 34.4428C63.2183 34.5264 63.3092 34.5862 63.4121 34.626C63.5151 34.6658 63.6201 34.6857 63.727 34.6857C63.8744 34.6857 64.0117 34.6658 64.1348 34.624C64.2579 34.5822 64.3569 34.5344 64.4295 34.4786V32.6766L64.4336 32.6746Z" fill="#575756"/>
<path d="M67.2638 31.0203L66.4159 31.8327L66.1333 31.5838L66.9024 30.6719L67.2638 31.0223V31.0203ZM66.8136 35.2715H66.2544V32.1892H66.8136V35.2715Z" fill="#575756"/>
<path d="M69.0847 32.1113C69.3087 32.1113 69.4985 32.1392 69.6519 32.1969C69.8053 32.2547 69.9305 32.3343 70.0253 32.4399C70.1202 32.5454 70.1868 32.6689 70.2272 32.8142C70.2676 32.9576 70.2878 33.1169 70.2878 33.2921V35.2176C70.2393 35.2256 70.1727 35.2355 70.0859 35.2495C69.9991 35.2634 69.9022 35.2753 69.7952 35.2873C69.6862 35.2992 69.5691 35.3092 69.444 35.3191C69.3188 35.3291 69.1916 35.3331 69.0685 35.3331C68.8929 35.3331 68.7294 35.3152 68.582 35.2793C68.4346 35.2435 68.3054 35.1877 68.1964 35.1101C68.0874 35.0324 68.0047 34.9309 67.9441 34.8054C67.8835 34.68 67.8533 34.5266 67.8533 34.3494C67.8533 34.1722 67.8876 34.0328 67.9582 33.9114C68.0289 33.7899 68.1238 33.6903 68.2429 33.6147C68.364 33.539 68.5033 33.4853 68.6628 33.4494C68.8222 33.4136 68.9918 33.3956 69.1674 33.3956C69.2239 33.3956 69.2825 33.3976 69.341 33.4036C69.4016 33.4096 69.4581 33.4176 69.5126 33.4275C69.5671 33.4375 69.6135 33.4454 69.6539 33.4534C69.6943 33.4614 69.7225 33.4673 69.7387 33.4713V33.318C69.7387 33.2264 69.7286 33.1368 69.7084 33.0492C69.6882 32.9616 69.6519 32.8819 69.5994 32.8122C69.5469 32.7425 69.4763 32.6888 69.3854 32.647C69.2946 32.6051 69.1775 32.5852 69.0342 32.5852C68.8505 32.5852 68.689 32.5972 68.5497 32.6231C68.4124 32.6489 68.3075 32.6748 68.2409 32.7027L68.1742 32.2467C68.2469 32.2149 68.366 32.185 68.5356 32.1551C68.7031 32.1253 68.8868 32.1113 69.0826 32.1113H69.0847ZM69.1331 34.8731C69.2643 34.8731 69.3834 34.8711 69.4843 34.8652C69.5873 34.8592 69.6721 34.8492 69.7407 34.8333V33.9154C69.7003 33.8954 69.6357 33.8795 69.5449 33.8656C69.4541 33.8516 69.3451 33.8457 69.2179 33.8457C69.1331 33.8457 69.0443 33.8516 68.9514 33.8636C68.8565 33.8755 68.7718 33.8994 68.693 33.9373C68.6143 33.9751 68.5497 34.0269 68.4972 34.0906C68.4447 34.1563 68.4185 34.2419 68.4185 34.3474C68.4185 34.5446 68.4831 34.682 68.6103 34.7596C68.7374 34.8373 68.9131 34.8751 69.1331 34.8751V34.8731Z" fill="#575756"/>
<path d="M63.3757 16.6016V16.4682C63.3757 15.3671 63.2485 14.3576 62.9941 13.4356C62.7398 12.5157 62.3139 11.7312 61.7204 11.084C61.1249 10.4389 60.3315 9.9351 59.3363 9.57669C58.3411 9.21827 57.1178 9.03906 55.6624 9.03906C54.4492 9.03906 53.3086 9.13464 52.2428 9.32579C51.1749 9.51695 50.3634 9.7081 49.8042 9.89926L50.3493 13.4157C50.8822 13.2246 51.5746 13.0573 52.4224 12.9139C53.2703 12.7706 54.2049 12.6989 55.2243 12.6989C55.9753 12.6989 56.6011 12.7945 57.0976 12.9856C57.5942 13.1768 57.9939 13.4476 58.2987 13.794C58.6015 14.1405 58.8135 14.5427 58.9346 14.9967C59.0557 15.4507 59.1163 15.9306 59.1163 16.4324V17.1492C58.5087 17.0058 57.9394 16.9043 57.4065 16.8446C56.8736 16.7848 56.3628 16.755 55.8784 16.755C54.8347 16.755 53.8355 16.8565 52.8766 17.0596C51.9178 17.2627 51.076 17.5972 50.3472 18.0652C49.6205 18.5311 49.0432 19.1364 48.6193 19.8771C48.1954 20.6199 47.9834 21.5279 47.9834 22.6051C47.9834 23.6823 48.1711 24.6739 48.5466 25.4406C48.9221 26.2072 49.4429 26.8284 50.1111 27.3063C50.7772 27.7842 51.5847 28.1327 52.5314 28.3477C53.4782 28.5627 54.5198 28.6703 55.6604 28.6703C57.3823 28.6703 58.9286 28.5687 60.2992 28.3656C61.6699 28.1625 62.6934 27.9893 63.3736 27.8459V18.6645C62.7398 18.2503 62.001 17.8879 61.1773 17.5913L63.3736 16.6016H63.3757ZM59.1183 25.0105C58.4138 25.1538 57.3843 25.2255 56.0257 25.2255C54.9094 25.2255 54.0252 25.0284 53.3692 24.6341C52.7151 24.2399 52.3861 23.527 52.3861 22.4996C52.3861 21.9739 52.5072 21.5358 52.7495 21.1893C52.9917 20.8429 53.3127 20.5741 53.7144 20.3809C54.1141 20.1898 54.5622 20.0583 55.0608 19.9867C55.5574 19.915 56.0479 19.8791 56.5344 19.8791C57.0916 19.8791 57.6023 19.915 58.0626 19.9867C58.5228 20.0583 58.8741 20.13 59.1183 20.2017V25.0105Z" fill="#575756"/>
<path d="M80.185 1.0012V10.4395C79.7732 10.1766 79.1474 9.90185 78.3117 9.61312C77.4739 9.32639 76.511 9.18303 75.4189 9.18303C74.0604 9.18303 72.8532 9.42197 71.7995 9.89986C70.7437 10.3777 69.8535 11.0488 69.1248 11.909C68.398 12.7712 67.8449 13.7986 67.4695 14.9953C67.094 16.192 66.9062 17.5082 66.9062 18.9439C66.9062 20.4512 67.1303 21.8092 67.5785 23.0179C68.0266 24.2265 68.6645 25.25 69.4881 26.0863C70.3117 26.9246 71.3069 27.5697 72.4717 28.0237C73.6365 28.4777 74.9466 28.7047 76.402 28.7047C77.9786 28.7047 79.3735 28.5972 80.5867 28.3821C81.7999 28.1671 82.7931 27.9521 83.5703 27.737V0.427734L80.187 1.0012H80.185ZM80.185 15.3976V25.3715C79.8458 25.467 79.3654 25.5566 78.7477 25.6403C78.13 25.7239 77.3589 25.7657 76.4363 25.7657C74.6175 25.7657 73.1621 25.1743 72.07 23.9896C70.9779 22.8048 70.4328 21.1242 70.4328 18.9479C70.4328 17.9921 70.5297 17.0941 70.7235 16.2558C70.9173 15.4195 71.2322 14.6947 71.6703 14.0854C72.1063 13.476 72.6715 12.9962 73.3619 12.6497C74.0523 12.3032 74.884 12.13 75.855 12.13C76.8259 12.13 77.6253 12.2853 78.4025 12.5959C78.8466 12.7732 79.2281 12.9563 79.5531 13.1415C80.4494 13.6353 81.4063 14.5652 82.0583 15.7042C82.0583 15.7042 81.3215 15.2701 80.185 15.3995V15.3976Z" fill="#575756"/>
<path d="M102.863 28.1964C102.394 27.3203 101.871 26.4262 101.304 25.5401C100.743 24.662 100.151 23.7958 99.5459 22.9675C98.9464 22.1471 98.3367 21.3427 97.7331 20.5741C97.5414 20.3312 97.3557 20.0962 97.172 19.8632H95.1876L96.1162 18.5451L102.461 9.54883H99.447L94.6345 16.4424L89.8079 9.54883H86.6103L93.0862 18.6446C91.9315 20.0942 90.7829 21.5936 89.6706 23.1069C88.5321 24.656 87.442 26.3665 86.4307 28.1944L86.2874 28.4513H89.1417L89.1922 28.3577C89.4708 27.838 89.818 27.2307 90.2258 26.5497C90.6295 25.8727 91.0837 25.1957 91.5722 24.5366C92.0688 23.8675 92.5876 23.1845 93.1145 22.5036C93.5949 21.8823 94.0834 21.277 94.5679 20.7035C95.0524 21.3148 95.5409 21.9381 96.0233 22.5613C96.5684 23.2662 97.0952 23.9711 97.5918 24.654C98.0884 25.337 98.5467 26.0001 98.9585 26.6273C99.3703 27.2546 99.7215 27.836 100.006 28.3577L100.057 28.4493H102.998L102.863 28.1944V28.1964Z" fill="#575756"/>
<path d="M26.0428 17.0141V16.8966C26.0428 15.9269 25.9297 15.0368 25.7057 14.2244C25.4816 13.414 25.1061 12.7231 24.5833 12.1536C24.0584 11.5841 23.36 11.1421 22.4839 10.8255C21.6078 10.5089 20.5278 10.3516 19.246 10.3516C18.1761 10.3516 17.1728 10.4352 16.2321 10.6044C15.2914 10.7737 14.5748 10.941 14.0843 11.1102L14.5647 14.2085C15.035 14.0393 15.6447 13.8919 16.3916 13.7665C17.1405 13.639 17.9621 13.5773 18.8604 13.5773C19.5225 13.5773 20.0736 13.6609 20.5117 13.8302C20.9497 13.9994 21.303 14.2364 21.5694 14.541C21.8359 14.8477 22.0236 15.2001 22.1306 15.6004C22.2376 16.0006 22.2901 16.4227 22.2901 16.8648V17.498C21.7552 17.3705 21.2525 17.2829 20.7842 17.2292C20.3138 17.1774 19.8657 17.1495 19.4377 17.1495C18.5193 17.1495 17.6371 17.2391 16.7933 17.4183C15.9495 17.5975 15.2066 17.8922 14.5647 18.3044C13.9228 18.7146 13.4161 19.2482 13.0426 19.9013C12.6692 20.5545 12.4814 21.3569 12.4814 22.3047C12.4814 23.2525 12.647 24.1287 12.978 24.8037C13.3091 25.4787 13.7693 26.0263 14.3568 26.4484C14.9442 26.8705 15.6548 27.1752 16.4885 27.3663C17.3222 27.5555 18.2407 27.6511 19.246 27.6511C20.764 27.6511 22.1266 27.5615 23.3337 27.3823C24.5409 27.2031 25.4432 27.0497 26.0428 26.9243V18.8341C25.4856 18.4697 24.8316 18.1511 24.1069 17.8882L26.0428 17.0161V17.0141ZM22.2921 24.4234C21.6724 24.5508 20.764 24.6125 19.5669 24.6125C18.5838 24.6125 17.8026 24.4393 17.2273 24.0908C16.65 23.7424 16.3613 23.1151 16.3613 22.2091C16.3613 21.7452 16.4683 21.3609 16.6823 21.0542C16.8962 20.7496 17.1789 20.5126 17.5321 20.3434C17.8854 20.1741 18.281 20.0586 18.7191 19.9949C19.1571 19.9312 19.5891 19.8994 20.0171 19.8994C20.5076 19.8994 20.9578 19.9312 21.3635 19.9949C21.7693 20.0586 22.0802 20.1224 22.2941 20.1841V24.4214L22.2921 24.4234Z" fill="white"/>
</svg>
