<?xml version="1.0" encoding="utf-8"?>
<!-- Generator: Adobe Illustrator 27.5.0, SVG Export Plug-In . SVG Version: 6.00 Build 0)  -->
<svg version="1.1" xmlns="http://www.w3.org/2000/svg" xmlns:xlink="http://www.w3.org/1999/xlink" x="0px" y="0px"
	 viewBox="0 0 1713 1140" style="enable-background:new 0 0 1713 1140;" xml:space="preserve">
<g id="Guides_For_Artboard">
</g>
<g id="background">
	<rect x="0" style="fill:#FFFFFF;" width="1713" height="1140"/>
	<circle style="fill:#EED5D5;" cx="855.5" cy="570" r="532.553"/>
</g>
<g id="object">
	<g>
		<g>
			<path style="fill:#F7F7F7;" d="M1091.388,1033.049H592.12V314.671h554.121v671.587
				C1146.242,1012.1,1121.683,1033.049,1091.388,1033.049z"/>
			<rect x="591.99" y="314.671" style="fill:#8CABEF;" width="553.195" height="33.352"/>
		</g>
		<g>
			<g>
				<path style="fill:#D67086;" d="M1006.509,709.75c7.461,0,7.461-8.435,0-8.435c-92.558,0-185.115,0-277.673,0
					c-7.461,0-7.461,8.435,0,8.435l0,0H1006.509z"/>
			</g>
		</g>
		<g>
			<path style="fill:#EED5D5;" d="M856.533,371.155c-44.493,0-84.314,19.704-111.309,50.838l111.309,96.449l111.309-96.449
				C940.846,390.859,901.025,371.155,856.533,371.155z"/>
			<path style="fill:#5D66D3;" d="M1012.924,496.858l-145.781,20.96v147.287c81.41,0,147.287-65.876,147.287-147.287
				C1014.43,510.698,1013.897,503.706,1012.924,496.858z"/>
			<path style="fill:#DDDAE8;" d="M745.381,422.48c-52.471,62.246-44.561,155.074,17.685,207.544
				c5.444,4.589,11.133,8.688,16.998,12.356l77.932-124.971L745.381,422.48z"/>
			<path style="fill:#8CABEF;" d="M857.794,664.895c-27.599,0.006-55.293-7.698-79.623-23.391l79.638-123.892L857.794,664.895z"/>
			<path style="fill:#3B3387;" d="M1020.413,488.745c-4.077-28.663-16.392-54.637-34.472-75.489l-111.309,96.449L1020.413,488.745z"
				/>
		</g>
		<g>
			<g>
				<rect x="657.266" y="870.447" style="fill:#D67086;" width="54.107" height="130.327"/>
				<rect x="657.266" y="819.982" style="fill:#EED5D5;" width="54.107" height="61.244"/>
			</g>
			<g>
				<rect x="1013.473" y="876.327" style="fill:#D67086;" width="54.107" height="130.327"/>
				<rect x="1013.473" y="766.333" style="fill:#EED5D5;" width="54.46" height="120.773"/>
			</g>
			<g>
				<rect x="894.737" y="866.038" style="fill:#D67086;" width="54.107" height="137.676"/>
				<rect x="894.737" y="853.789" style="fill:#EED5D5;" width="54.107" height="91.376"/>
			</g>
			<g>
				<rect x="776.002" y="818.084" style="fill:#D67086;" width="54.107" height="184.895"/>
				<rect x="776.002" y="746.49" style="fill:#EED5D5;" width="54.107" height="147.885"/>
			</g>
		</g>
		<g>
			<g>
				<path style="fill:#FFFFFF;" d="M613.126,340.779c-3.924,0-7.115-3.192-7.115-7.115s3.192-7.115,7.115-7.115
					c3.924,0,7.115,3.192,7.115,7.115S617.05,340.779,613.126,340.779z M613.126,327.734c-3.269,0-5.93,2.66-5.93,5.93
					c0,3.27,2.66,5.93,5.93,5.93c3.269,0,5.93-2.66,5.93-5.93C619.056,330.394,616.396,327.734,613.126,327.734z"/>
			</g>
			<g>
				<path style="fill:#FFFFFF;" d="M635.065,340.779c-3.924,0-7.115-3.192-7.115-7.115s3.192-7.115,7.115-7.115
					s7.115,3.192,7.115,7.115S638.989,340.779,635.065,340.779z M635.065,327.734c-3.269,0-5.93,2.66-5.93,5.93
					c0,3.27,2.66,5.93,5.93,5.93s5.93-2.66,5.93-5.93C640.995,330.394,638.335,327.734,635.065,327.734z"/>
			</g>
			<g>
				<path style="fill:#FFFFFF;" d="M657.005,340.779c-3.924,0-7.115-3.192-7.115-7.115s3.192-7.115,7.115-7.115
					s7.115,3.192,7.115,7.115S660.928,340.779,657.005,340.779z M657.005,327.734c-3.269,0-5.93,2.66-5.93,5.93
					c0,3.27,2.66,5.93,5.93,5.93c3.269,0,5.93-2.66,5.93-5.93C662.934,330.394,660.274,327.734,657.005,327.734z"/>
			</g>
		</g>
	</g>
	<path style="opacity:0.07;fill:#2E4661;" d="M607.039,1053.967H253.83V508.468h386.008v512.7
		C639.838,1039.282,625.154,1053.967,607.039,1053.967z"/>
	<g>
		<g>
			<path style="fill:#DDDAE8;" d="M578.11,1038.712H209.972V467.198h415.929V990.92
				C625.901,1017.315,604.504,1038.712,578.11,1038.712z"/>
		</g>
		<rect x="254.117" y="512.832" style="fill:#FFFFFF;" width="336.704" height="212.916"/>
		<path style="fill:#F7F7F7;" d="M467.41,586.675c1.396,2.816,3.814,5.224,8.39,6.933c8.526,3.183,19.987,0.886,24.902-6.253
			c8.216-11.934,5.907-29.012,14.747-41.411c3.587-5.031,9.06-9.113,15.509-10.952c6.449-1.839,13.85-1.3,19.589,1.861
			c9.349,5.15,12.584,15.791,12.675,25.448c0.174,18.548-2.418,37.721-5.759,56.024c-1.616,8.856-4.106,17.955-10.525,24.953
			c-8.706,9.491-23.041,13.443-36.75,15.556c-34.685,5.346-70.262,2.077-105.281-1.205c-28.169-2.64-56.338-5.28-84.507-7.92
			c-7.94-0.744-31.321,0.457-36.075-5.045c-4.642-5.372-0.994-23.579,1.721-29.198c6.046-12.515,22.582-19.577,38.103-18.783
			c35.009,1.792,21.17-34.768,32.375-52.128c5.953-9.222,19.062-15.85,30.353-12.007c10.768,3.665,15.265,14.474,20.572,23.444
			c2.755,4.657,6.67,9.484,12.558,10.492c10.013,1.713,18.366-8.465,28.559-8.074c6.035,0.231,11.171,4.305,13.777,9.067
			C465.887,573.952,464.65,581.108,467.41,586.675z"/>
		<path style="fill:#D67086;" d="M568.815,714.194c-0.014,0,0.055-15.324,0.058-16.166c0.082-22.869,0.079-45.738,0.107-68.607
			c0.027-21.851,1.828-43.695,1.474-65.491c-0.158-10.083-4.513-15.352-15.133-12.648c-10.455,2.662-20.018,8.867-26.598,17.429
			c-4.457,5.8-8.162,13.061-15.093,15.397c-12.388,4.174-22.524-9.778-33.649-16.643c-11.978-7.392-28.652-6.147-39.4,2.941
			c-12.989,10.983-15.968,29.974-26.96,42.955c-12.099,14.288-34.075,19.125-51.055,11.237c-6.975-3.24-12.97-8.29-19.845-11.736
			c-27.267-13.67-65.178,5.999-69.703,36.163v62.418C273.017,711.443,569.365,714.745,568.815,714.194z"/>
		<rect x="259.619" y="758.208" style="fill:#8CABEF;" width="25.308" height="25.308"/>
		<rect x="259.619" y="795.62" style="fill:#5D66D3;" width="25.308" height="25.308"/>
		<rect x="305.833" y="765.91" style="fill:#F7F7F7;" width="73.723" height="7.702"/>
		<rect x="304.733" y="806.623" style="fill:#F7F7F7;" width="73.723" height="7.702"/>
		<rect x="262.92" y="864.081" style="fill:#F7F7F7;" width="321.3" height="8.321"/>
		<rect x="262.92" y="888.255" style="fill:#EED5D5;" width="143.044" height="114.023"/>
		<rect x="427.971" y="889.355" style="fill:#F7F7F7;" width="156.248" height="49.653"/>
		<rect x="426.32" y="952.074" style="fill:#F7F7F7;" width="156.248" height="49.653"/>
	</g>
	<g>
		<path style="fill:#8CABEF;" d="M445.78,231.015H182.904c-1.013,0-1.834,0.895-1.834,1.998v139.26
			c0,34.333,25.543,62.165,57.054,62.165h108.995l44.566,62.526c1.191,1.672,3.825,0.851,3.855-1.202l0.915-61.324h49.324
			c1.013,0,1.834-0.895,1.834-1.998V233.013C447.614,231.909,446.793,231.015,445.78,231.015z"/>
		<g>
			<rect x="215.494" y="264.294" style="fill:#DDDAE8;" width="163.746" height="6.823"/>
			<rect x="215.494" y="316.318" style="fill:#DDDAE8;" width="195.301" height="6.823"/>
			<rect x="215.494" y="368.341" style="fill:#DDDAE8;" width="195.301" height="6.823"/>
		</g>
	</g>
	<g>
		<g>
			<path style="fill:#D67086;" d="M616.813,296.307H421.835V158.096h182.579l39.102,41.298v68.373
				C643.515,283.53,631.56,296.307,616.813,296.307z"/>
			<polygon style="fill:#F7F7F7;" points="643.658,199.724 604.402,200.711 604.402,158.096 			"/>
		</g>
		<g>
			<rect x="475.305" y="193.965" style="fill:#F7F7F7;" width="124.387" height="5.923"/>
			<rect x="455.6" y="222.595" style="fill:#F7F7F7;" width="144.092" height="5.923"/>
			<rect x="455.6" y="251.224" style="fill:#F7F7F7;" width="144.092" height="5.923"/>
		</g>
	</g>
	<g>
		<g>
			<path style="fill:#5D66D3;" d="M1009.541,572.95c-0.738,0-1.38-0.544-1.484-1.295c-0.279-2.025-0.462-4.084-0.543-6.121
				c-0.033-0.828,0.612-1.526,1.439-1.558c0.831-0.031,1.526,0.612,1.558,1.439c0.077,1.94,0.251,3.901,0.517,5.83
				c0.113,0.821-0.46,1.578-1.281,1.691C1009.679,572.945,1009.61,572.95,1009.541,572.95z"/>
		</g>
		<g>
			<path style="fill:#5D66D3;" d="M1009.688,555.049c-0.075,0-0.151-0.006-0.227-0.017c-0.819-0.124-1.382-0.889-1.258-1.708
				c0.598-3.938,1.571-7.926,2.892-11.85c0.264-0.785,1.115-1.208,1.9-0.943c0.785,0.264,1.207,1.115,0.943,1.9
				c-1.266,3.76-2.197,7.577-2.769,11.344C1011.056,554.517,1010.416,555.049,1009.688,555.049z M1017.19,532.464
				c-0.231,0-0.466-0.054-0.686-0.167c-0.736-0.38-1.025-1.284-0.646-2.021c1.803-3.496,3.912-6.995,6.268-10.398
				c0.471-0.681,1.406-0.851,2.087-0.379c0.681,0.471,0.851,1.406,0.38,2.087c-2.283,3.298-4.325,6.684-6.068,10.066
				C1018.258,532.167,1017.734,532.464,1017.19,532.464z M1030.712,512.808c-0.35,0-0.701-0.122-0.985-0.369
				c-0.624-0.544-0.689-1.492-0.145-2.116c2.594-2.975,5.42-5.906,8.4-8.712c0.603-0.568,1.552-0.54,2.12,0.064
				c0.568,0.603,0.539,1.552-0.064,2.12c-2.908,2.739-5.666,5.599-8.195,8.5C1031.546,512.634,1031.13,512.808,1030.712,512.808z
				 M1048.078,496.409c-0.444,0-0.885-0.197-1.181-0.574c-0.512-0.651-0.398-1.595,0.253-2.106c3.144-2.469,6.447-4.841,9.817-7.05
				c0.693-0.454,1.623-0.26,2.077,0.432c0.454,0.693,0.26,1.622-0.432,2.077c-3.299,2.162-6.533,4.484-9.609,6.9
				C1048.729,496.304,1048.403,496.409,1048.078,496.409z M1068.059,483.296c-0.53,0-1.043-0.281-1.316-0.778
				c-0.399-0.726-0.134-1.638,0.592-2.037c3.486-1.915,7.095-3.76,10.728-5.482c0.748-0.355,1.643-0.036,1.998,0.712
				c0.355,0.749,0.036,1.643-0.712,1.998c-3.579,1.698-7.135,3.515-10.569,5.401
				C1068.551,483.236,1068.303,483.296,1068.059,483.296z M1089.652,473.044c-0.593,0-1.154-0.354-1.39-0.936
				c-0.312-0.768,0.058-1.642,0.826-1.954c3.667-1.489,7.46-2.909,11.273-4.22c0.783-0.27,1.637,0.147,1.906,0.931
				c0.27,0.783-0.147,1.637-0.931,1.906c-3.762,1.294-7.504,2.695-11.12,4.163C1090.031,473.008,1089.84,473.044,1089.652,473.044z
				 M1112.25,465.259c-0.652,0-1.252-0.428-1.441-1.086c-0.229-0.796,0.231-1.627,1.027-1.856c3.791-1.09,7.706-2.113,11.635-3.04
				c0.808-0.19,1.614,0.309,1.805,1.115c0.19,0.806-0.309,1.614-1.115,1.805c-3.883,0.917-7.751,1.927-11.496,3.004
				C1112.526,465.24,1112.387,465.259,1112.25,465.259z M1303.504,461.009l-1.217-0.004c-0.828-0.006-1.495-0.683-1.489-1.511
				c0.006-0.828,0.651-1.505,1.511-1.489l1.195,0.004c3.708,0,7.284-0.131,10.626-0.39c0.822-0.061,1.547,0.553,1.611,1.38
				c0.064,0.826-0.554,1.548-1.38,1.612C1310.943,460.875,1307.29,461.009,1303.504,461.009z M1290.35,460.548
				c-0.033,0-0.066-0.001-0.099-0.003c-3.57-0.232-7.484-0.561-11.966-1.003c-0.824-0.081-1.427-0.816-1.345-1.64
				c0.081-0.824,0.815-1.43,1.64-1.345c4.449,0.44,8.33,0.765,11.866,0.995c0.827,0.054,1.453,0.768,1.399,1.594
				C1291.794,459.939,1291.134,460.548,1290.35,460.548z M1135.508,459.754c-0.707,0-1.336-0.501-1.472-1.221
				c-0.154-0.814,0.381-1.599,1.195-1.753c3.864-0.732,7.851-1.401,11.85-1.988c0.822-0.119,1.582,0.447,1.702,1.266
				c0.12,0.82-0.446,1.582-1.266,1.702c-3.958,0.581-7.904,1.243-11.728,1.967C1135.694,459.745,1135.6,459.754,1135.508,459.754z
				 M1326.092,459.046c-0.704,0-1.332-0.498-1.471-1.216c-0.157-0.813,0.374-1.6,1.188-1.757c3.95-0.764,7.765-1.778,11.34-3.014
				c0.785-0.271,1.637,0.145,1.908,0.927c0.271,0.783-0.145,1.637-0.927,1.908c-3.709,1.282-7.662,2.333-11.751,3.124
				C1326.283,459.036,1326.187,459.046,1326.092,459.046z M1266.543,458.287c-0.055,0-0.11-0.003-0.165-0.009l-3.56-0.388
				c-2.764-0.299-5.536-0.584-8.314-0.855c-0.825-0.08-1.428-0.814-1.348-1.638c0.08-0.824,0.81-1.43,1.638-1.348
				c2.789,0.271,5.572,0.558,8.347,0.858l3.564,0.389c0.824,0.09,1.418,0.831,1.328,1.654
				C1267.948,457.718,1267.298,458.287,1266.543,458.287z M1159.156,456.267c-0.756,0-1.406-0.57-1.489-1.339
				c-0.089-0.824,0.506-1.564,1.33-1.653c3.901-0.422,7.924-0.785,11.959-1.08c0.829-0.06,1.545,0.561,1.605,1.387
				c0.06,0.826-0.561,1.545-1.387,1.605c-4,0.292-7.988,0.652-11.854,1.07C1159.265,456.264,1159.21,456.267,1159.156,456.267z
				 M1242.739,455.985c-0.04,0-0.08-0.002-0.121-0.005c-4.016-0.321-8.019-0.603-11.899-0.838c-0.827-0.05-1.457-0.761-1.407-1.588
				c0.05-0.827,0.763-1.451,1.588-1.407c3.9,0.236,7.923,0.519,11.958,0.842c0.826,0.066,1.442,0.789,1.375,1.615
				C1244.17,455.39,1243.513,455.985,1242.739,455.985z M1218.866,454.55c-0.02,0-0.039,0-0.059-0.001
				c-4.023-0.156-8.033-0.264-11.918-0.322c-0.828-0.012-1.49-0.694-1.478-1.522c0.012-0.828,0.687-1.516,1.522-1.478
				c3.909,0.058,7.943,0.167,11.989,0.324c0.828,0.032,1.473,0.729,1.441,1.557C1220.333,453.916,1219.668,454.55,1218.866,454.55z
				 M1183,454.517c-0.8,0-1.465-0.632-1.497-1.439c-0.034-0.828,0.61-1.526,1.438-1.56c3.917-0.16,7.953-0.265,11.996-0.312
				c0.817,0.012,1.508,0.654,1.517,1.482c0.01,0.828-0.654,1.508-1.482,1.518c-4.014,0.047-8.021,0.151-11.909,0.31
				C1183.042,454.516,1183.021,454.517,1183,454.517z M1348.584,451.188c-0.534,0-1.051-0.286-1.322-0.789
				c-0.393-0.729-0.12-1.639,0.61-2.032c3.373-1.816,6.686-3.951,9.845-6.345c0.661-0.501,1.601-0.37,2.101,0.29
				c0.5,0.66,0.371,1.601-0.29,2.101c-3.283,2.487-6.726,4.706-10.235,6.595C1349.068,451.13,1348.824,451.188,1348.584,451.188z
				 M1367.62,436.859c-0.384,0-0.769-0.147-1.062-0.44c-0.585-0.586-0.584-1.536,0.002-2.121c2.693-2.687,5.325-5.648,7.822-8.801
				c0.515-0.649,1.459-0.758,2.107-0.244c0.649,0.515,0.759,1.458,0.244,2.107c-2.57,3.243-5.28,6.292-8.055,9.061
				C1368.387,436.713,1368.003,436.859,1367.62,436.859z M1382.496,418.197c-0.278,0-0.559-0.077-0.81-0.239
				c-0.697-0.448-0.898-1.376-0.45-2.073c2.069-3.216,4.077-6.652,5.968-10.215c0.389-0.732,1.297-1.01,2.028-0.622
				c0.732,0.388,1.01,1.297,0.622,2.028c-1.93,3.636-3.981,7.146-6.095,10.431C1383.473,417.953,1382.99,418.197,1382.496,418.197z"
				/>
		</g>
		<g>
			<path style="fill:#5D66D3;" d="M1393.77,397.05c-0.202,0-0.408-0.041-0.605-0.128c-0.758-0.335-1.101-1.22-0.767-1.978
				c0.787-1.782,1.565-3.627,2.313-5.483c0.31-0.768,1.184-1.14,1.952-0.831c0.768,0.31,1.14,1.184,0.831,1.952
				c-0.76,1.886-1.551,3.761-2.351,5.573C1394.896,396.716,1394.346,397.05,1393.77,397.05z"/>
		</g>
	</g>
	<g>
		<path style="fill:#8CABEF;" d="M1467.9,277.478l-6.267,142.267l-46.978-49.316c0,0,53.441-96.94,53.815-95.337l-2.051-1.711
			c1.582-0.452-57.158,93.371-57.158,93.371l-65.932-17.083l121.283-74.63L1467.9,277.478z"/>
	</g>
	<g>
		<rect x="1107.595" y="738.196" style="opacity:0.07;fill:#2E4661;" width="277.224" height="200.413"/>
		<g>
			<g>
				<g>
					<rect x="1117.066" y="726.568" style="fill:#8CABEF;" width="279.107" height="201.01"/>
					<rect x="1117.066" y="726.568" style="fill:#5D66D3;" width="278.727" height="16.001"/>
				</g>
				<path style="opacity:0.03;fill:#272525;" d="M1395.586,777.116v-0.62h-34.259v-33.619h-0.62v33.619h-41.072v-33.619h-0.62
					v33.619h-41.072v-33.619h-0.62v33.619h-41.072v-33.619h-0.62v33.619h-41.072v-33.619h-0.62v33.619h-41.072v-33.619h-0.62v33.619
					h-34.208v0.62h34.208v37.985h-34.208v0.62h34.208v37.985h-34.208v0.62h34.208v37.986h-34.208v0.62h34.208v35.345h0.62v-35.345
					h41.072v35.345h0.62v-35.345h41.072v35.345h0.62v-35.345h41.072v35.345h0.62v-35.345h41.072v35.345h0.62v-35.345h41.072v35.345
					h0.62v-35.345h34.259v-0.62h-34.259v-37.986h34.259v-0.62h-34.259v-37.985h34.259v-0.62h-34.259v-37.985H1395.586z
					 M1319.014,777.116v37.985h-41.072v-37.985H1319.014z M1236.25,815.721h41.072v37.985h-41.072V815.721z M1235.63,853.707
					h-41.072v-37.985h41.072V853.707z M1277.942,815.721h41.072v37.985h-41.072V815.721z M1277.322,777.116v37.985h-41.072v-37.985
					H1277.322z M1235.63,777.116v37.985h-41.072v-37.985H1235.63z M1152.866,777.116h41.072v37.985h-41.072V777.116z
					 M1152.866,815.721h41.072v37.985h-41.072V815.721z M1152.866,892.313v-37.986h41.072v37.986H1152.866z M1194.558,892.313
					v-37.986h41.072v37.986H1194.558z M1236.25,892.313v-37.986h41.072v37.986H1236.25z M1277.942,892.313v-37.986h41.072v37.986
					H1277.942z M1360.706,892.313h-41.072v-37.986h41.072V892.313z M1360.706,853.707h-41.072v-37.985h41.072V853.707z
					 M1360.706,815.101h-41.072v-37.985h41.072V815.101z"/>
			</g>
			<path style="fill:#DDDAE8;" d="M1366.139,768.338c-4.703,0-8.516,3.813-8.516,8.516c0,2.374,0.973,4.518,2.539,6.063
				c-9.875,8.504-19.751,17.007-29.626,25.511c-0.751,0.647-1.502,1.293-2.253,1.94c-1.46-1.176-3.313-1.882-5.333-1.882
				c-4.703,0-8.516,3.813-8.516,8.516c0,2.994,1.548,5.621,3.883,7.14c-2.163,5.208-4.326,10.416-6.49,15.624
				c-0.922,2.221-1.845,4.441-2.767,6.661c-0.62-0.144-1.263-0.227-1.926-0.227c-3.143,0-5.882,1.708-7.357,4.241
				c-9.54-6.03-19.08-12.06-28.62-18.09c-7.069-4.468-14.138-8.936-21.206-13.404c0.392-0.978,0.613-2.043,0.613-3.161
				c0-4.703-3.813-8.516-8.516-8.516c-4.703,0-8.516,3.813-8.516,8.516c0,0.596,0.062,1.177,0.179,1.739
				c-13.378,5.461-26.757,10.921-40.135,16.382c-1.312,0.536-2.624,1.071-3.936,1.607c-1.31-3.017-4.313-5.128-7.812-5.128
				c-4.703,0-8.516,3.813-8.516,8.516c0,2.442,1.033,4.638,2.68,6.19c-1.987,2.255-3.974,4.51-5.96,6.766
				c-9.484,10.766-18.968,21.531-28.452,32.297c-1.36-0.919-2.999-1.457-4.764-1.457c-4.703,0-8.516,3.813-8.516,8.516
				s3.813,8.516,8.516,8.516c4.703,0,8.516-3.813,8.516-8.516c0-1.818-0.574-3.499-1.544-4.882
				c8.098-9.192,16.196-18.384,24.294-27.577c3.514-3.989,7.029-7.978,10.543-11.967c0.99,0.403,2.071,0.629,3.205,0.629
				c4.703,0,8.516-3.813,8.516-8.516c0-0.115-0.013-0.226-0.017-0.34c0.193-0.079,0.387-0.158,0.58-0.237
				c14.658-5.983,29.316-11.966,43.975-17.949c1.514,2.359,4.155,3.927,7.166,3.927c2.469,0,4.686-1.057,6.242-2.737
				c6.411,4.052,12.822,8.105,19.233,12.157c10.4,6.574,20.801,13.148,31.201,19.721c-0.063,0.417-0.105,0.839-0.105,1.273
				c0,4.703,3.813,8.516,8.516,8.516c4.703,0,8.516-3.813,8.516-8.516c0-2.943-1.494-5.537-3.764-7.067
				c3.091-7.441,6.182-14.882,9.273-22.323c0.578,0.124,1.176,0.192,1.791,0.192c4.703,0,8.516-3.813,8.516-8.516
				c0-1.565-0.43-3.027-1.166-4.287c1.747-1.505,3.494-3.009,5.241-4.513c7.482-6.443,14.964-12.885,22.446-19.328
				c1.614-1.39,3.228-2.78,4.842-4.169c1.018,0.43,2.136,0.668,3.31,0.668c4.703,0,8.516-3.813,8.516-8.516
				C1374.655,772.151,1370.842,768.338,1366.139,768.338z"/>
		</g>
	</g>
	<g>
		<g>
			<g>
				<g>
					<g>
						<g>
							<polygon style="fill:#F7F7F7;" points="1419.762,637.903 1386.363,691.401 1196.844,572.008 1230.244,518.51 							"/>
							<path style="fill:#353A85;" d="M1485.046,715.406l-0.385,0.617c-10.535,16.876-29.336,24.15-41.993,16.249l-145.474-89.293
								l38.229-64.294l145.783,91.857C1493.862,678.444,1495.582,698.53,1485.046,715.406z"/>
						</g>
						<polygon style="opacity:0.2;fill:#BBBCBF;" points="1210.104,579.984 1219.278,586.665 1302.323,565.109 1233.131,520.959 
													"/>
					</g>
					<g>
						<path style="fill:#D67086;" d="M1171.519,292.243c-88.935-55.522-206.041-28.436-261.563,60.499
							c-55.522,88.935-28.436,206.041,60.499,261.563c88.935,55.522,206.041,28.436,261.563-60.499
							C1287.541,464.871,1260.454,347.766,1171.519,292.243z M1209.516,539.758c-47.764,76.508-148.505,99.809-225.013,52.045
							c-76.507-47.764-99.809-148.505-52.045-225.012c47.763-76.508,148.505-99.809,225.013-52.045
							C1233.978,362.509,1257.28,463.251,1209.516,539.758z"/>
						
							<ellipse transform="matrix(0.7071 -0.7071 0.7071 0.7071 -6.8286 890.0631)" style="opacity:0.5;fill:#D1E7F5;" cx="1070.987" cy="453.274" rx="163.309" ry="163.309"/>
					</g>
				</g>
				<g>
					<g style="opacity:0.22;">
						<path style="fill:#FFFFFF;" d="M953.3,446.695c-0.804-52.072,33.035-99.19,83.27-113.642
							c50.109-14.416,104.723,7.694,131.085,52.669c7.431,12.677,27.641,2.084,20.2-10.612
							c-30.349-51.776-90.518-78.579-149.185-66.093c-57.817,12.305-100.475,61.997-107.427,120.077
							c-0.672,5.617-0.838,11.285-0.751,16.937C930.718,460.682,953.527,461.453,953.3,446.695L953.3,446.695z"/>
					</g>
					<path style="opacity:0.31;fill:#FFFFFF;" d="M1201.747,408.035c7.039,4.395,9.183,13.664,4.789,20.703
						c-4.395,7.039-13.664,9.183-20.703,4.789c-7.039-4.395-9.183-13.664-4.789-20.703
						C1185.438,405.784,1194.708,403.641,1201.747,408.035z"/>
				</g>
			</g>
			<path style="fill:#D67086;" d="M1299.124,640.85l36.372-61.171c1.249-2.101,0.705-4.807-1.259-6.262l-0.637-0.472
				c-2.281-1.69-5.526-1.021-6.953,1.433l-35.818,61.597c-1.341,2.306-0.527,5.263,1.805,6.558l0.084,0.047
				C1294.969,643.83,1297.807,643.064,1299.124,640.85z"/>
			<g>
				<path style="fill:#F7F7F7;" d="M1230.293,454.442c-0.142,39.252-14.398,77.298-40.319,106.813
					c-25.589,29.136-61.211,47.944-99.527,53.377c-39.174,5.554-79.614-4.383-112.348-26.334
					c-31.881-21.379-55.144-54.361-65.344-91.271c-10.577-38.274-6.198-80.015,11.631-115.428
					c17.175-34.114,46.71-61.569,81.929-76.32c36.768-15.4,78.501-16.325,116.092-3.308c36.198,12.535,66.943,38.596,86.206,71.567
					C1222.922,398.026,1230.191,426.134,1230.293,454.442c0.02,5.602,8.709,5.604,8.688,0
					c-0.142-39.325-13.748-77.191-38.445-107.749c-24.112-29.835-58.663-50.697-96.092-58.775
					c-38.819-8.378-79.868-2.543-115.024,15.773c-33.793,17.606-61.046,47.074-76.474,81.845
					c-16.127,36.343-18.789,77.844-7.937,116.054c10.486,36.922,33.933,69.219,64.959,91.604
					c31.897,23.014,71.75,33.795,110.888,31.102c38.803-2.671,75.701-19.084,104.159-45.485
					c34.376-31.891,53.798-77.608,53.967-124.367C1239.002,448.838,1230.314,448.84,1230.293,454.442z"/>
			</g>
		</g>
		<path style="fill:#EAC5B0;" d="M1462.549,751.232c6.137-16.111,15.028-47.958,20.138-63.419
			c-11.198-37.663-34.242-100.575-36.632-101.266c-13.967-4.044-26.417-7.744-40.34-11.763c-0.644-0.186-4.727,20.643-5.37,20.458
			c-0.521-0.15-0.731-4.309-0.896-9.073c0,0,0-0.003,0-0.006l-2.684-27.074c-0.077-2.263-1.631-4.205-3.823-4.774
			c-8.158-2.119-25.778-6.255-26.545-4.976c-0.283,0.471-1.805,23.973-3.069,30.687l-2.941-1.534l-3.836-43.857
			c0,0-30.473-7.678-31.07-6.265c-0.703,1.662-7.48,38.87-7.48,38.87s-11.788,88.794-13.128,95.107
			c-1.961,9.245-8.138,17.528-7.248,26.746c0.994,10.294,5.5,19.849,9.954,29.223c10.751,22.627,21.501,45.253,32.252,67.88
			c2.346,15.358,4.806,50.538,8.339,65.656c39.761-8.024,79.698-14.095,123.952-28.179
			C1473.373,823.273,1459.903,758.177,1462.549,751.232z"/>
		<g>
			<polygon style="fill:#F7F7F7;" points="1337.244,909.659 1328.064,828.951 1487.026,770.088 1514.661,868.485 1337.786,921.292 
							"/>
			<path style="fill:#5D66D3;" d="M1520.773,817.74c0,0-163.502,93.435-197.312,102.282L1314.125,1140h278L1520.773,817.74z"/>
			<path style="fill:#292949;" d="M1361.845,861.801c-1.283,4.838-6.245,7.72-11.082,6.437c-4.838-1.283-7.72-6.244-6.437-11.082
				c1.283-4.838,6.245-7.72,11.082-6.437C1360.246,852.001,1363.128,856.963,1361.845,861.801z"/>
		</g>
		<path style="fill:#EAC5B0;" d="M1288.504,692.037l-21.206-33.44l-30.694-28.584c0,0-5.965-17.232,13.27-17.708
			c19.235-0.476,32.178,15.604,40.694,28.367c3.746,5.614,21.84,21.949,35.887,31.944c18.375,13.074-0.822,70.642-0.822,70.642
			S1290.633,695.228,1288.504,692.037z"/>
	</g>
</g>
</svg>
