<?xml version="1.0" encoding="utf-8"?>
<!-- Generator: Adobe Illustrator 27.5.0, SVG Export Plug-In . SVG Version: 6.00 Build 0)  -->
<svg version="1.1" xmlns="http://www.w3.org/2000/svg" xmlns:xlink="http://www.w3.org/1999/xlink" x="0px" y="0px"
	 viewBox="0 0 3710 3710" style="enable-background:new 0 0 3710 3710;" xml:space="preserve">
<g id="Background">
	<g>
		<g>
			<rect style="fill:#FFFFFF;" width="3710" height="3710"/>
		</g>
	</g>
</g>
<g id="Illustration">
	<g id="Business_analysis">
		<path style="fill:#F4F7FA;" d="M1132.111,517.777c-96.455,140.604,16.641,368.558-126.481,474.304
			c-139.318,102.936-310.466-65.79-441.764,22.817c-194.774,131.443-159.204,732.9,125.565,1106.598
			c85.64,112.384,157.197,156.111,188.89,283.211c68.053,272.917-171.119,435.265-125.604,570.246
			C855.197,3278.88,2431.28,3533.91,3063.675,2620.51c295.354-426.596,339.546-1042.603,75.656-1510.464
			C2662.486,264.629,1348.538,202.287,1132.111,517.777z"/>
		<g>
			<g>
				<g>
					<linearGradient id="SVGID_1_" gradientUnits="userSpaceOnUse" x1="1101.1132" y1="1258.7692" x2="1875.7708" y2="2707.9604">
						<stop  offset="0" style="stop-color:#FF9085"/>
						<stop  offset="1" style="stop-color:#FB6FBB"/>
					</linearGradient>
					<path style="fill:url(#SVGID_1_);" d="M2111.576,509.588l-1411.39-47.77c-32.268-1.092-58.48,23.908-58.48,55.843v2563.822
						c0,31.935,26.211,56.331,58.48,54.496l1411.39-80.258c29.191-1.66,52.81-27.555,52.81-57.844V566.218
						C2164.387,535.929,2140.768,510.576,2111.576,509.588z"/>
					<g style="opacity:0.3;">
						<path style="fill:#D8DEE8;" d="M1532.482,2402.776c-24.003-293.152,156.076-414.153,87.404-679.752
							c-84.883-328.303-411.353-342.374-522.535-664.315c-42.6-123.351-59.43-309.834,62.515-581.333l-459.679-15.558
							c-32.268-1.092-58.48,23.908-58.48,55.843v2563.822c0,31.935,26.211,56.331,58.48,54.496l1258.483-71.563
							C1638.483,2816.498,1547.235,2582.962,1532.482,2402.776z"/>
					</g>
					
						<linearGradient id="SVGID_00000161617741218481100750000008933524247686185355_" gradientUnits="userSpaceOnUse" x1="2101.2708" y1="619.525" x2="1059.5018" y2="2324.2354">
						<stop  offset="0" style="stop-color:#FFFFFF"/>
						<stop  offset="0.9964" style="stop-color:#EBEFF2"/>
					</linearGradient>
					<path style="opacity:0.3;fill:url(#SVGID_00000161617741218481100750000008933524247686185355_);" d="M2111.576,541.961
						l-1411.39-46.142c-13.227-0.433-23.997,9.859-23.997,22.942v2560.829c0,13.083,10.77,23.126,23.997,22.39l1411.39-78.63
						c11.981-0.668,21.72-11.328,21.72-23.765V565.226C2133.296,552.789,2123.558,542.352,2111.576,541.961z"/>
				</g>
				<g>
					
						<linearGradient id="SVGID_00000039856828343328335810000003440609393294244493_" gradientUnits="userSpaceOnUse" x1="951.9862" y1="2532.5608" x2="1879.4401" y2="2532.5608">
						<stop  offset="0" style="stop-color:#FFFFFF"/>
						<stop  offset="0.9964" style="stop-color:#EBEFF2"/>
					</linearGradient>
					<path style="opacity:0.6;fill:url(#SVGID_00000039856828343328335810000003440609393294244493_);" d="M1845.016,2480.602
						l-856.403,30.858c-20.217,0.729-36.627,17.694-36.627,37.893l0,0c0,20.198,16.41,35.941,36.627,35.162l856.403-33.001
						c19.022-0.733,34.424-17.182,34.424-36.739l0,0C1879.44,2495.216,1864.038,2479.916,1845.016,2480.602z"/>
					
						<linearGradient id="SVGID_00000021092801841359335460000016177309871099364745_" gradientUnits="userSpaceOnUse" x1="951.9862" y1="2660.78" x2="1879.4401" y2="2660.78">
						<stop  offset="0" style="stop-color:#FFFFFF"/>
						<stop  offset="0.9964" style="stop-color:#EBEFF2"/>
					</linearGradient>
					<path style="opacity:0.6;fill:url(#SVGID_00000021092801841359335460000016177309871099364745_);" d="M1845.016,2606.912
						l-856.403,34.676c-20.217,0.819-36.627,17.857-36.627,38.056l0,0c0,20.198,16.41,35.867,36.627,34.998l856.403-36.819
						c19.022-0.818,34.424-17.335,34.424-36.892l0,0C1879.44,2621.372,1864.038,2606.142,1845.016,2606.912z"/>
					
						<linearGradient id="SVGID_00000055669353042421859970000010009767911109033641_" gradientUnits="userSpaceOnUse" x1="951.9862" y1="2788.9995" x2="1879.4401" y2="2788.9995">
						<stop  offset="0" style="stop-color:#FFFFFF"/>
						<stop  offset="0.9964" style="stop-color:#EBEFF2"/>
					</linearGradient>
					<path style="opacity:0.6;fill:url(#SVGID_00000055669353042421859970000010009767911109033641_);" d="M1845.016,2733.222
						l-856.403,38.493c-20.217,0.908-36.627,18.02-36.627,38.219l0,0c0,20.198,16.41,35.794,36.627,34.835l856.403-40.637
						c19.022-0.903,34.424-17.489,34.424-37.046l0,0C1879.44,2747.529,1864.038,2732.367,1845.016,2733.222z"/>
				</g>
				<g>
					
						<linearGradient id="SVGID_00000003077461558147959360000008078699995528389029_" gradientUnits="userSpaceOnUse" x1="951.9862" y1="656.2067" x2="1418.5055" y2="656.2067">
						<stop  offset="0" style="stop-color:#FFFFFF"/>
						<stop  offset="0.9964" style="stop-color:#EBEFF2"/>
					</linearGradient>
					<path style="opacity:0.6;fill:url(#SVGID_00000003077461558147959360000008078699995528389029_);" d="M1400.918,644.484
						l-430.792-12.201c-10.016-0.284-18.14,7.591-18.14,17.588l0,0c0,9.997,8.124,18.322,18.14,18.593l430.792,11.668
						c9.716,0.263,17.587-7.499,17.587-17.336l0,0C1418.505,652.957,1410.634,644.76,1400.918,644.484z"/>
					
						<linearGradient id="SVGID_00000107588354179845536660000015386762543124882828_" gradientUnits="userSpaceOnUse" x1="951.9862" y1="720.1791" x2="1418.5055" y2="720.1791">
						<stop  offset="0" style="stop-color:#FFFFFF"/>
						<stop  offset="0.9964" style="stop-color:#EBEFF2"/>
					</linearGradient>
					<path style="opacity:0.6;fill:url(#SVGID_00000107588354179845536660000015386762543124882828_);" d="M1400.918,707.981
						L970.126,696.73c-10.016-0.262-18.14,7.63-18.14,17.628l0,0c0,9.997,8.124,18.304,18.14,18.553l430.792,10.717
						c9.716,0.242,17.587-7.538,17.587-17.375l0,0C1418.505,716.416,1410.634,708.235,1400.918,707.981z"/>
					
						<linearGradient id="SVGID_00000029046595533340555530000011121280985535663015_" gradientUnits="userSpaceOnUse" x1="951.9862" y1="784.1513" x2="1418.5055" y2="784.1513">
						<stop  offset="0" style="stop-color:#FFFFFF"/>
						<stop  offset="0.9964" style="stop-color:#EBEFF2"/>
					</linearGradient>
					<path style="opacity:0.6;fill:url(#SVGID_00000029046595533340555530000011121280985535663015_);" d="M1400.918,771.478
						l-430.792-10.301c-10.016-0.24-18.14,7.671-18.14,17.668l0,0c0,9.997,8.124,18.286,18.14,18.513l430.792,9.767
						c9.716,0.22,17.587-7.577,17.587-17.414l0,0C1418.505,779.874,1410.634,771.71,1400.918,771.478z"/>
				</g>
			</g>
			<path style="opacity:0.35;fill:#FFFFFF;" d="M1535.729,2402.669c-23.998-293.119,156.04-414.106,87.385-679.675
				c-84.864-328.266-411.259-342.335-522.416-664.239c-40.832-118.249-57.986-294.534,48.181-548.268L703.625,495.93
				c-13.224-0.432-23.991,9.858-23.991,22.94V3079.4c0,13.081,10.767,23.124,23.991,22.387l1219.977-67.966
				C1634.31,2797.148,1549.869,2575.376,1535.729,2402.669z"/>
		</g>
		<g>
			
				<linearGradient id="SVGID_00000023976170730476354600000010536265423792255902_" gradientUnits="userSpaceOnUse" x1="2120.6919" y1="1995.0928" x2="3884.5161" y2="1995.0928" gradientTransform="matrix(0.9964 -0.0843 0.0843 0.9964 -697.5371 339.2811)">
				<stop  offset="0" style="stop-color:#AA80F9"/>
				<stop  offset="0.9964" style="stop-color:#6165D7"/>
			</linearGradient>
			<path style="fill:url(#SVGID_00000023976170730476354600000010536265423792255902_);" d="M1810.829,3076.997
				c-90.779-1.536-173.299-211.895-180.461-383.843c-2.771-66.516-5.528-132.686,32.899-199.29
				c64.854-112.407,164.428-82.912,222.598-174.479c85.896-135.215-71.436-293.653,13.99-405.989
				c62.838-82.633,167.872-23.078,244.069-113.876c88.39-105.329,2.126-251.106,83.969-304.231
				c47.541-30.858,89.165,10.204,225.996-20.918c53.529-12.176,80.293-18.264,102.744-37.008
				c78.717-65.722,18.484-177.601,76.724-260.853c64.109-91.643,233.311-93.618,338.594-64.726
				c188.641,51.767,298.601,237.349,325.599,394.292c5.784,33.62,39.962,253.122-99.481,393.683
				c-101.397,102.212-255.667,123.437-280.686,126.88c-97.478,13.412-121.314-11.803-152.679,13.941
				c-90.661,74.413,87.104,302.641-15.789,481.628c-42.01,73.077-124.485,126.957-202.586,142.708
				c-126.27,25.467-195.229-57.978-257.933-16.004c-81.121,54.303-1.688,218.054-89.71,283.518
				c-62.278,46.317-125.577-18.154-235.242,29.727C1866.089,3004.661,1864.583,3077.906,1810.829,3076.997z"/>
			<path style="opacity:0.5;fill:#F4F7FA;" d="M1791.178,2916.767c41.885,3.767,46.446-109.122,161.922-274.243
				c126.102-180.316,209.939-173.352,328.083-336.297c134.874-186.021,52.294-231.901,166.898-377.51
				c155.325-197.349,323.111-133.52,510.739-365.463c56.282-69.575,130.847-164.494,101.228-262.252
				c-25.682-84.765-126.33-160.558-224.861-145.53c-4.124,0.629-86.785,14.568-129.818,86.404
				c-52.79,88.122,15.533,160.736-35.456,229.261c-26.706,35.892-75.269,47.073-172.393,69.437
				c-139.686,32.164-167.838,5.919-202.503,37.701c-78.329,71.818,35.938,232.846-41.583,318.914
				c-66.554,73.892-190.335-0.881-247.853,68.965c-69.419,84.297,81.341,229.083,16.91,361.959
				c-55.474,114.405-198.762,72.092-278.332,194.959C1650.195,2668.163,1730.736,2911.333,1791.178,2916.767z"/>
		</g>
		<g>
			
				<linearGradient id="SVGID_00000011752045153603829770000006838675932622060953_" gradientUnits="userSpaceOnUse" x1="2231.2485" y1="2368.9329" x2="3351.1086" y2="2368.9329">
				<stop  offset="0.0036" style="stop-color:#E38DDD"/>
				<stop  offset="1" style="stop-color:#9571F6"/>
			</linearGradient>
			<path style="fill:url(#SVGID_00000011752045153603829770000006838675932622060953_);" d="M2401.053,2896.732
				c64.791-1.573,62.378-120.661,171.438-166.666c120.637-50.889,210.525,58.152,292.946,5.487
				c92.61-59.177,21.776-224.104,125.055-298.244c70.559-50.654,128.584,8.406,218.718-40.465
				c93.949-50.939,176.848-194.234,126.856-322.393c-41.708-106.92-161.328-165.925-252.376-158.016
				c-74.483,6.47-91.298,54.372-157.672,46.977c-82.693-9.214-88.09-87.076-176.366-114.05
				c-87.835-26.839-200.594,14.16-257.704,89.215c-47.489,62.411-46.123,134.732-44.93,197.811
				c3.201,169.344,86.052,226.891,51.15,295.366c-43.548,85.441-190.1,30.306-246.427,116.258
				C2181.246,2655.585,2307.864,2898.996,2401.053,2896.732z"/>
			<path style="opacity:0.5;fill:#F4F7FA;" d="M2358.164,2775.97c23.993,2.473,23.717-74.803,91.719-145.76
				c77.965-81.353,145.393-49.755,234.899-116.626c110.908-82.861,57.681-168.959,155.578-251.649
				c137.234-115.915,330.202-21.375,371.647-109.355c24.215-51.404-16.49-137.107-71.179-161.172
				c-58.361-25.683-92.121,36.663-188.612,31.744c-90.375-4.608-100.768-61.339-213.488-79.708
				c-54.952-8.955-127.136-20.717-168.895,18.024c-81.822,75.91-11.219,312.674,10.333,384.947
				c19.827,66.489,34.773,91.629,19.734,120.883c-39.391,76.623-199.654,16.473-263.193,101.198
				C2283.563,2639.357,2327.169,2772.776,2358.164,2775.97z"/>
		</g>
		<g>
			<g>
				<g>
					<g>
						
							<linearGradient id="SVGID_00000136375282668722770980000005482465044461357456_" gradientUnits="userSpaceOnUse" x1="2233.8667" y1="591.9658" x2="1522.4474" y2="1962.1084">
							<stop  offset="0.0036" style="stop-color:#E38DDD"/>
							<stop  offset="1" style="stop-color:#9571F6"/>
						</linearGradient>
						<path style="fill:url(#SVGID_00000136375282668722770980000005482465044461357456_);" d="M2368.062,454.631L896.512,404.824
							c-33.644-1.139-60.972,24.927-60.972,58.223v2673.103c0,33.297,27.329,58.732,60.972,56.819l1471.549-83.678
							c30.436-1.731,55.062-28.73,55.062-60.31V513.674C2423.123,482.094,2398.497,455.661,2368.062,454.631z"/>
						<g style="opacity:0.3;">
							<path style="fill:#D8DEE8;" d="M1764.284,2428.515c-25.026-305.648,162.728-431.806,91.13-708.726
								c-88.501-342.296-428.887-356.967-544.808-692.631c-44.416-128.609-61.963-323.04,65.179-606.112l-479.273-16.221
								c-33.644-1.139-60.972,24.927-60.972,58.223v2673.103c0,33.297,27.329,58.732,60.972,56.819l1312.125-74.613
								C1874.803,2859.871,1779.666,2616.381,1764.284,2428.515z"/>
						</g>
						
							<linearGradient id="SVGID_00000039815629200172692730000004152172525724530316_" gradientUnits="userSpaceOnUse" x1="2357.3169" y1="569.2537" x2="1271.1433" y2="2346.6262">
							<stop  offset="0" style="stop-color:#FFFFFF"/>
							<stop  offset="0.9964" style="stop-color:#EBEFF2"/>
						</linearGradient>
						<path style="fill:url(#SVGID_00000039815629200172692730000004152172525724530316_);" d="M2368.062,488.383L896.512,440.274
							c-13.791-0.451-25.019,10.279-25.019,23.92v2669.983c0,13.641,11.229,24.112,25.019,23.344l1471.549-81.981
							c12.492-0.696,22.646-11.811,22.646-24.778V512.64C2390.708,499.673,2380.554,488.792,2368.062,488.383z"/>
					</g>
					<g>
						<path style="fill:#D8DEE8;" d="M2090.14,2509.657l-892.907,32.174c-21.078,0.76-38.188,18.448-38.188,39.508l0,0
							c0,21.059,17.11,37.472,38.188,36.66l892.907-34.408c19.833-0.764,35.891-17.914,35.891-38.305l0,0
							C2126.031,2524.894,2109.973,2508.943,2090.14,2509.657z"/>
						<path style="fill:#D8DEE8;" d="M2090.14,2641.351l-892.907,36.154c-21.078,0.854-38.188,18.618-38.188,39.678l0,0
							c0,21.059,17.11,37.396,38.188,36.49l892.907-38.389c19.833-0.853,35.891-18.074,35.891-38.465l0,0
							C2126.031,2656.428,2109.973,2640.549,2090.14,2641.351z"/>
						<path style="fill:#D8DEE8;" d="M2090.14,2773.045l-892.907,40.134c-21.078,0.947-38.188,18.788-38.188,39.848l0,0
							c0,21.059,17.11,37.32,38.188,36.32l892.907-42.369c19.833-0.941,35.891-18.234,35.891-38.625l0,0
							C2126.031,2787.962,2109.973,2772.154,2090.14,2773.045z"/>
					</g>
					<g>
						<path style="fill:#D8DEE8;" d="M1627.113,595.277l-449.155-12.721c-10.443-0.296-18.913,7.914-18.913,18.338l0,0
							c0,10.423,8.471,19.103,18.913,19.386l449.155,12.165c10.13,0.274,18.337-7.818,18.337-18.075l0,0
							C1645.449,604.111,1637.242,595.564,1627.113,595.277z"/>
						<path style="fill:#D8DEE8;" d="M1627.113,661.48l-449.155-11.731c-10.443-0.273-18.913,7.956-18.913,18.38l0,0
							c0,10.423,8.471,19.084,18.913,19.344l449.155,11.174c10.13,0.252,18.337-7.859,18.337-18.116l0,0
							C1645.449,670.274,1637.242,661.745,1627.113,661.48z"/>
						<path style="fill:#D8DEE8;" d="M1627.113,727.684l-449.155-10.74c-10.443-0.25-18.913,7.997-18.913,18.421l0,0
							c0,10.423,8.471,19.065,18.913,19.302l449.155,10.183c10.13,0.23,18.337-7.899,18.337-18.156l0,0
							C1645.449,736.437,1637.242,727.926,1627.113,727.684z"/>
					</g>
				</g>
				<g>
					<g>
						
							<linearGradient id="SVGID_00000064347907142324723590000013943256724598887576_" gradientUnits="userSpaceOnUse" x1="1381.2589" y1="1021.6183" x2="1478.4187" y2="1899.9376">
							<stop  offset="0" style="stop-color:#FFC444"/>
							<stop  offset="0.9964" style="stop-color:#F36F56"/>
						</linearGradient>
						<path style="fill:url(#SVGID_00000064347907142324723590000013943256724598887576_);" d="M1454.048,1438.774
							c29.16-55.165,83.737-94.355,147.687-101.661l4.466-272.606c-182.271,4.764-339.278,117.147-409.618,278.235
							L1454.048,1438.774z"/>
						
							<linearGradient id="SVGID_00000160895329562584556060000014851352540767034757_" gradientUnits="userSpaceOnUse" x1="1720.8519" y1="1721.1504" x2="2109.813" y2="2506.7751">
							<stop  offset="0.0036" style="stop-color:#E38DDD"/>
							<stop  offset="1" style="stop-color:#9571F6"/>
						</linearGradient>
						<path style="fill:url(#SVGID_00000160895329562584556060000014851352540767034757_);" d="M1811.547,1562.744
							c-15.563,90.572-93.308,160.082-187.413,160.955c-27.82,0.258-54.299-5.512-78.239-16.108l-142.849,234.82
							c66.035,35.068,141.391,54.231,221.088,52.77c236.975-4.343,428.93-189.783,450.565-422.491L1811.547,1562.744z"/>
						
							<linearGradient id="SVGID_00000117666329684167509340000007117029239444335016_" gradientUnits="userSpaceOnUse" x1="1153.248" y1="1405.3336" x2="1674.1539" y2="2075.0693">
							<stop  offset="0" style="stop-color:#AA80F9"/>
							<stop  offset="0.9964" style="stop-color:#6165D7"/>
						</linearGradient>
						<path style="fill:url(#SVGID_00000117666329684167509340000007117029239444335016_);" d="M1358.927,1915.674l143.258-235.023
							c-43.161-35.422-70.759-89.534-70.759-150.324c0-14.688,1.624-28.996,4.68-42.76l-257.772-95.671
							c-13.576,43.984-20.895,90.74-20.895,139.204C1157.439,1691.58,1237.439,1832.355,1358.927,1915.674z"/>
					</g>
					<g>
						
							<linearGradient id="SVGID_00000091701521806733358600000017128775116623767455_" gradientUnits="userSpaceOnUse" x1="2233.813" y1="817.5526" x2="1817.5776" y2="1397.991">
							<stop  offset="0" style="stop-color:#FF9085"/>
							<stop  offset="1" style="stop-color:#FB6FBB"/>
						</linearGradient>
						<path style="fill:url(#SVGID_00000091701521806733358600000017128775116623767455_);" d="M1652.78,1338.135
							c85.993,13.397,152.824,84.781,160.804,173.258l435.517,17.211c0-0.195,0.003-0.389,0.003-0.583
							c0-337.54-257.716-618.007-588.917-642.919L1652.78,1338.135z"/>
					</g>
				</g>
				<path style="opacity:0.35;fill:#FFFFFF;" d="M1767.67,2428.403c-25.021-305.613,162.691-431.756,91.109-708.645
					c-88.482-342.258-428.789-356.927-544.684-692.552c-42.573-123.289-60.458-307.089,50.235-571.637l-464.233-15.177
					c-13.788-0.451-25.014,10.278-25.014,23.918v2669.671c0,13.639,11.226,24.11,25.014,23.342l1271.977-70.863
					C1870.452,2839.697,1782.412,2608.471,1767.67,2428.403z"/>
			</g>
			<g>
				
					<linearGradient id="SVGID_00000033352187064276895270000006328170519280370062_" gradientUnits="userSpaceOnUse" x1="974.0632" y1="796.3179" x2="573.5595" y2="2108.4932">
					<stop  offset="0" style="stop-color:#FFC444"/>
					<stop  offset="0.9964" style="stop-color:#F36F56"/>
				</linearGradient>
				<path style="fill:url(#SVGID_00000033352187064276895270000006328170519280370062_);" d="M1275.537,1178.425l-712.181-7.088
					c-16.105-0.16-29.177-12.99-29.177-28.655V871.804c0-15.665,13.072-28.053,29.177-27.669l619.994,14.768
					c15.249,0.363,27.596,12.993,27.596,28.209v232.813L1275.537,1178.425z"/>
				<polygon style="opacity:0.67;fill:#FFFFFF;" points="1110.908,956.795 639.273,947.6 639.273,915.126 1110.908,924.973 				"/>
				<polygon style="opacity:0.67;fill:#FFFFFF;" points="1110.908,1020.441 639.273,1012.547 639.273,980.074 1110.908,988.618 				
					"/>
				<polygon style="opacity:0.67;fill:#FFFFFF;" points="1110.908,1084.086 639.273,1077.495 639.273,1045.021 1110.908,1052.263 
									"/>
			</g>
			<g>
				
					<linearGradient id="SVGID_00000050664893065840097100000008537559652250601913_" gradientUnits="userSpaceOnUse" x1="-7327.231" y1="-3312.7676" x2="-8108.1987" y2="-2223.7109" gradientTransform="matrix(-1 0 0 -1 -5902 -287)">
					<stop  offset="0" style="stop-color:#FF9085"/>
					<stop  offset="1" style="stop-color:#FB6FBB"/>
				</linearGradient>
				<path style="opacity:0.3;fill:url(#SVGID_00000050664893065840097100000008537559652250601913_);" d="M1651.58,1962.904
					l856.363-18.406c22.292-0.479,40.345,17.825,40.345,40.883v398.717c0,23.058-18.053,42.359-40.345,43.111l-902.596,30.423
					c-23.349,0.787-42.297-17.733-42.297-41.366v-521.194L1651.58,1962.904z"/>
				<polygon style="opacity:0.67;fill:#FFFFFF;" points="1715.477,2300.447 2402.104,2279.918 2402.104,2328.108 1715.477,2349.473 
									"/>
				<polygon style="opacity:0.67;fill:#FFFFFF;" points="1715.477,2202.396 2402.104,2183.536 2402.104,2231.727 1715.477,2251.422 
									"/>
				<polygon style="opacity:0.67;fill:#FFFFFF;" points="1715.477,2104.344 2402.104,2087.154 2402.104,2135.345 1715.477,2153.37 
									"/>
			</g>
		</g>
		<g>
			
				<linearGradient id="SVGID_00000029035527817278866460000003298806153236755599_" gradientUnits="userSpaceOnUse" x1="3174.949" y1="2970.7295" x2="3198.2109" y2="3266.7883" gradientTransform="matrix(1 -0.0024 0.0024 1 -794.8005 3.3687)">
				<stop  offset="0" style="stop-color:#311944"/>
				<stop  offset="1" style="stop-color:#A03976"/>
			</linearGradient>
			<path style="fill:url(#SVGID_00000029035527817278866460000003298806153236755599_);" d="M2433,3114.021
				c0,0-93.535,42.782-95.048,49.579c-1.514,6.797,60.212-2.422,85.422-1.503c25.209,0.92,45.927-6.581,43.622-17.252
				c-2.31-10.671-11.197-37.505-11.197-37.505L2433,3114.021z"/>
			
				<linearGradient id="SVGID_00000151521316921665207780000003463589101459381667_" gradientUnits="userSpaceOnUse" x1="3235.001" y1="3135.5554" x2="3230.772" y2="2828.9319" gradientTransform="matrix(1 -0.0024 0.0024 1 -794.8005 3.3687)">
				<stop  offset="0" style="stop-color:#FFC444"/>
				<stop  offset="0.9964" style="stop-color:#F36F56"/>
			</linearGradient>
			<path style="fill:url(#SVGID_00000151521316921665207780000003463589101459381667_);" d="M2429.49,3079.491l5.797,42.145
				c0,0,14.836,5.241,24.78-1.022l4.137-46.249L2429.49,3079.491z"/>
			
				<linearGradient id="SVGID_00000021097695478255981960000018422689481833481344_" gradientUnits="userSpaceOnUse" x1="3614.5378" y1="2936.1958" x2="3637.7988" y2="3232.2446" gradientTransform="matrix(1 -0.0024 0.0024 1 -794.8005 3.3687)">
				<stop  offset="0" style="stop-color:#311944"/>
				<stop  offset="1" style="stop-color:#A03976"/>
			</linearGradient>
			<path style="fill:url(#SVGID_00000021097695478255981960000018422689481833481344_);" d="M2870.464,3079.444l10.933,17.458
				c3.058,4.883,3.98,10.767,2.533,16.344c-3.774,14.549-11.313,42.903-14.613,50.299c-4.492,10.075-65.074,16.199-65.074,16.199
				s-5.421-7.59,7.138-16.805c12.558-9.215,20.642-10.678,25.05-24.243c4.406-13.562,7.277-51.906,7.277-51.906L2870.464,3079.444z"
				/>
			
				<linearGradient id="SVGID_00000174594963117309664640000001974266750810152635_" gradientUnits="userSpaceOnUse" x1="3637.8643" y1="3129.9988" x2="3633.635" y2="2823.3657" gradientTransform="matrix(1 -0.0024 0.0024 1 -794.8005 3.3687)">
				<stop  offset="0" style="stop-color:#FFC444"/>
				<stop  offset="0.9964" style="stop-color:#F36F56"/>
			</linearGradient>
			<path style="fill:url(#SVGID_00000174594963117309664640000001974266750810152635_);" d="M2825.023,3035.119
				c3.987,3.163,23.59,62.187,23.59,62.187s6.32,8.041,18.258-3.876c11.938-11.917,5.404-5.346,5.404-5.346l-2.385-58.094
				L2825.023,3035.119z"/>
			
				<linearGradient id="SVGID_00000093858872901157980740000000427560926283779206_" gradientUnits="userSpaceOnUse" x1="3161.822" y1="2638.8298" x2="3388.5327" y2="2638.8298" gradientTransform="matrix(1 -0.0024 0.0024 1 -794.8005 3.3687)">
				<stop  offset="0" style="stop-color:#444B8C"/>
				<stop  offset="0.9964" style="stop-color:#3E4177"/>
			</linearGradient>
			<path style="fill:url(#SVGID_00000093858872901157980740000000427560926283779206_);" d="M2375.936,2232.617
				c-4.638,125.77-4.511,262.403,3.076,408.349c8.541,164.347,25.279,316.224,46.242,453.886c7.671,0.226,15.731,0.247,24.15-0.009
				c5.685-0.171,11.193-0.462,16.517-0.842c10.638-28.581,23.204-66.163,34.43-111.043c11.801-47.193,18.888-89.515,23.912-129.983
				c17.689-142.483-3.472-154.859,10.908-260.456c12.735-93.522,31.157-97.217,52.475-230.004
				c23.129-144.079,5.602-165.644-2.917-173.429C2548.472,2155.945,2463.545,2178.771,2375.936,2232.617z"/>
			
				<linearGradient id="SVGID_00000071552387050163831710000004529202437436983170_" gradientUnits="userSpaceOnUse" x1="3161.8213" y1="2638.8396" x2="3388.5313" y2="2638.8396" gradientTransform="matrix(1 -0.0024 0.0024 1 -794.8005 3.3687)">
				<stop  offset="0" style="stop-color:#444B8C"/>
				<stop  offset="0.9964" style="stop-color:#3E4177"/>
			</linearGradient>
			<path style="opacity:0.3;fill:url(#SVGID_00000071552387050163831710000004529202437436983170_);" d="M2584.73,2189.088
				c-34.582-31.612-113.45-12.234-196.681,36.338c96.133,103.365,106.748,170.542,95.357,214.175
				c-12.872,49.313-52.335,63.602-52.055,117.49c0.344,66.222,60.154,83.621,59.051,153.7
				c-0.729,46.34-26.993,45.921-33.057,103.169c-7.176,67.736,27.191,90.988,16.198,141.117
				c-4.729,21.566-18.307,49.764-57.102,78.871c2.852,20.568,5.774,40.928,8.817,60.905c7.668,0.224,15.729,0.247,24.147-0.011
				c5.685-0.17,11.196-0.46,16.515-0.841c10.64-28.581,23.206-66.161,34.432-111.042c11.801-47.193,18.888-89.515,23.912-129.983
				c17.689-142.483-3.472-154.859,10.908-260.456c12.735-93.522,31.157-97.219,52.474-230.005
				C2610.774,2218.434,2593.248,2196.87,2584.73,2189.088z"/>
			
				<linearGradient id="SVGID_00000095327868538919570090000006809925512222984580_" gradientUnits="userSpaceOnUse" x1="3224.7612" y1="2616.4817" x2="3681.156" y2="2616.4817" gradientTransform="matrix(1 -0.0024 0.0024 1 -794.8005 3.3687)">
				<stop  offset="0" style="stop-color:#444B8C"/>
				<stop  offset="0.9964" style="stop-color:#3E4177"/>
			</linearGradient>
			<path style="fill:url(#SVGID_00000095327868538919570090000006809925512222984580_);" d="M2435.324,2230.362
				c82.85,120.604,172.261,270.735,252.331,450.499c60.509,135.849,104.464,263.429,136.784,377.148
				c4.341,1.996,14.58,5.977,27.647,4.218c17.823-2.401,28.481-13.807,31.267-16.99c12.847-81.607,11.243-150.692,6.697-200.544
				c-2.912-31.917-8.055-85.07-28.562-150.654c-22.969-73.462-38.649-77.556-68.572-155.264
				c-31.057-80.657-23.63-100.821-53.428-201.781c-12.242-41.475-32.716-103.188-66.432-176.987
				C2593.811,2183.457,2514.567,2206.91,2435.324,2230.362z"/>
			<path style="fill:#FFFFFF;" d="M2098.769,2060.193c0.785,29.346,49.017,55.195,87.854,63.123
				c90.804,18.533,196.08-47.446,246.048-120.432c9.812-14.331,20.713-31.707,23.342-30.363
				c5.941,3.042-48.648,92.734-72.316,194.744c-12.109,52.186-8.939,76.627-31.577,111.371c-5.128,7.87-11.447,16.065-9.227,25.377
				c5.562,23.318,58.89,29.373,95.883,33.574c39.057,4.434,75.476,4.005,111.481,3.479c57.637-0.841,62.177-3.835,75.333,2.623
				c40.09,19.675,37.373,66.816,67.542,73.102c25.335,5.281,51.034-23.011,59.183-31.981
				c42.355-46.625,40.092-102.839,47.604-159.538c17.464-131.82,89.081-276.242,159.137-367.667
				c21.248-27.727,36.022-42.313,36.945-68.082c2.709-75.645-117.131-159.15-216.908-168.745
				c-27.348-2.629-76.321-1.801-122.23,2.528c-18.349,1.728-37.884,4.273-58.881,7.947c-50.921,8.909-86.37,15.108-122.496,31.637
				c-145.678,66.654-113.886,215.025-271.559,317.61C2149.708,2015.772,2097.947,2029.462,2098.769,2060.193z"/>
			
				<linearGradient id="SVGID_00000088814254896289471820000014198774031440051851_" gradientUnits="userSpaceOnUse" x1="2711.6338" y1="1569.2543" x2="2663.2012" y2="1996.4969">
				<stop  offset="0" style="stop-color:#FFC444"/>
				<stop  offset="0.9964" style="stop-color:#F36F56"/>
			</linearGradient>
			<path style="fill:url(#SVGID_00000088814254896289471820000014198774031440051851_);" d="M2695.655,1542.306
				c0,0,6.257,34.917,20.658,59.773c13.017,22.464,66.833,30.516,78.044,34.427c11.212,3.909-16.915,23.436-46.827,30.515
				c-29.91,7.081-117.403,11.71-134.539,2.292c-17.136-9.416,11.128-12.296,31.71-23.116c20.583-10.821,27.467-54.807,21.093-73.505
				C2659.422,1553.989,2695.655,1542.306,2695.655,1542.306z"/>
			<g>
				
					<linearGradient id="SVGID_00000010994194307726220690000013033063304942509736_" gradientUnits="userSpaceOnUse" x1="4567.9912" y1="2361.8044" x2="4490.2046" y2="2164.24" gradientTransform="matrix(0.9989 0.0475 -0.0475 0.9989 -1725.9976 -907.3022)">
					<stop  offset="0" style="stop-color:#444B8C"/>
					<stop  offset="0.9964" style="stop-color:#3E4177"/>
				</linearGradient>
				<path style="fill:url(#SVGID_00000010994194307726220690000013033063304942509736_);" d="M2638.789,1532.2
					c-21.706-15.512-27.717-57.463-15.662-66.88c3.446-2.691,6.738-1.455,55.723,18.194c24.325,9.76,36.291,14.955,40.231,25.698
					c2.406,6.558,2.017,15.417-0.64,22.398c-1.369,3.592-4.036,8.064-9.965,16.599c-5.262,7.574-4.908,7.317-6.521,9.519
					c-3.875,5.287-11.351,14.19-25.048,24.51c-0.762-3.861-1.966-8.652-3.983-13.877c-0.776-2.01-3.905-9.869-8.866-16.489
					C2655.52,1540.478,2645.833,1537.236,2638.789,1532.2z"/>
				
					<linearGradient id="SVGID_00000127732375543041023870000005237352319919490208_" gradientUnits="userSpaceOnUse" x1="2668.0437" y1="1520.0802" x2="2706.0974" y2="1834.8896">
					<stop  offset="0" style="stop-color:#FFC444"/>
					<stop  offset="0.9964" style="stop-color:#F36F56"/>
				</linearGradient>
				<path style="fill:url(#SVGID_00000127732375543041023870000005237352319919490208_);" d="M2694.417,1572.096
					c0,0-14.202,21.156-40.507,18.286c-23.552-2.572-24.694-55.69-9.116-66.271c5.197-3.531,15.345-4.644,23.442-1.99
					c4.782,1.568,6.332,3.654,14.195,6.063c7.252,2.224,9.361,1.5,11.494,3.463c2.668,2.452,4.446,8.255-0.857,23.539
					c4.706-4.367,10.193-5.88,13.945-3.904c0.598,0.315,2.173,1.49,3.011,3.202
					C2713.061,1560.678,2707.2,1568.163,2694.417,1572.096z"/>
			</g>
			
				<linearGradient id="SVGID_00000084489229143186782820000014891322937270214807_" gradientUnits="userSpaceOnUse" x1="2113.0371" y1="2016.116" x2="2480.2036" y2="2016.116">
				<stop  offset="0" style="stop-color:#AA80F9"/>
				<stop  offset="0.9964" style="stop-color:#6165D7"/>
			</linearGradient>
			<path style="opacity:0.3;fill:url(#SVGID_00000084489229143186782820000014891322937270214807_);" d="M2226.143,2055.683
				c65.837-14.828,92.071-14.35,124.628-40.582c54.206-43.675,62.347-110.149,93.847-109.337
				c14.886,0.384,26.979,15.587,35.585,30.473c-7.93,12.419-15.86,24.839-23.79,37.258c-0.032-0.472-0.137-0.838-0.401-0.974
				c-2.628-1.345-13.53,16.031-23.342,30.363c-49.968,72.986-155.244,138.965-246.048,120.432
				c-26.036-5.315-56.231-18.704-73.585-35.781C2157.853,2072.396,2196.13,2062.443,2226.143,2055.683z"/>
			
				<linearGradient id="SVGID_00000072274623887086581300000010590803771081350048_" gradientUnits="userSpaceOnUse" x1="6070.3213" y1="826.5523" x2="6152.9009" y2="826.5523" gradientTransform="matrix(0.8553 0.5182 -0.5182 0.8553 -2728.719 -1761.0112)">
				<stop  offset="0" style="stop-color:#FFC444"/>
				<stop  offset="0.9964" style="stop-color:#F36F56"/>
			</linearGradient>
			<path style="fill:url(#SVGID_00000072274623887086581300000010590803771081350048_);" d="M2118.916,2112.291
				c0,0-37.15-3.695-59.286-13.166c-22.136-9.473-36.437,4.128-34.403,13.544c2.033,9.413,38.453,22.52,53.003,22.99
				C2092.779,2136.131,2118.916,2112.291,2118.916,2112.291z"/>
			<path style="fill:#FFFFFF;" d="M2919.017,2308.793c39.886,3.559,129.669,5.182,193.17-53.566
				c105.716-97.797,53.272-283.955,16.473-364.015c-42.189-91.793-109.339-143.173-150.146-174.397
				c-50.628-38.739-81.53-62.383-118.707-57.089c-96.15,13.693-162.739,210.754-109.956,267.173
				c17.28,18.47,34.391,8.011,84.399,23.937c16.285,5.187,137.833,43.901,158.996,133.422
				c14.812,62.656-22.899,136.023-90.017,185.298C2908.491,2282.635,2913.754,2295.715,2919.017,2308.793z"/>
			
				<linearGradient id="SVGID_00000173144797362801101270000003951026298759137179_" gradientUnits="userSpaceOnUse" x1="2346.4922" y1="2132.574" x2="3099.7827" y2="2132.574">
				<stop  offset="0" style="stop-color:#AA80F9"/>
				<stop  offset="0.9964" style="stop-color:#6165D7"/>
			</linearGradient>
			<path style="opacity:0.3;fill:url(#SVGID_00000173144797362801101270000003951026298759137179_);" d="M2471.944,2276.333
				c45.156-28.537,51.836-57.458,102.401-77c65.689-25.389,97.255,6.862,129.823-19.176c38.758-30.988,4.448-84.973,33.452-178.655
				c4.923-15.901,42.313-136.676,128.108-152.064c40.006-7.175,92.847,8.151,113.208,42.054
				c15.935,26.531,1.09,46.311,20.464,75.602c19.361,29.272,42.517,22.112,67.198,46.526
				c39.189,38.766,45.196,120.513,9.815,166.743c-16.503,21.563-37.948,30.09-78.299,46.135
				c-24.647,9.799-47.56,15.895-67.291,19.766c49.41-47.423,75.052-108.583,62.422-162.004
				c-13.191-55.803-65.386-91.859-106.78-112.364c-41.421,77.952-75.275,168.28-86.548,253.376
				c-7.512,56.699-5.249,112.913-47.604,159.538c-8.148,8.969-33.848,37.262-59.183,31.981
				c-30.168-6.286-27.452-53.428-67.542-73.102c-13.156-6.458-17.696-3.464-75.333-2.623c-36.005,0.526-72.424,0.956-111.481-3.479
				c-32.898-3.736-78.632-8.971-92.282-26.478C2405.883,2309.493,2445.52,2293.031,2471.944,2276.333z"/>
			<g>
				
					<linearGradient id="SVGID_00000045611047060456686280000003945845094066077064_" gradientUnits="userSpaceOnUse" x1="1964.5438" y1="2187.897" x2="2899.6458" y2="2187.897">
					<stop  offset="0" style="stop-color:#444B8C"/>
					<stop  offset="0.9964" style="stop-color:#26264F"/>
				</linearGradient>
				<path style="fill:url(#SVGID_00000045611047060456686280000003945845094066077064_);" d="M2892.83,2340.141l4.647-13.668
					c7.408-21.793-4.772-45.035-27.19-51.864l-878.96-267.748l-26.783,90.779L2839.063,2367
					C2861.365,2373.868,2885.445,2361.865,2892.83,2340.141z"/>
				
					<linearGradient id="SVGID_00000180328827901075550980000011210610079883006089_" gradientUnits="userSpaceOnUse" x1="1102.124" y1="1892.7272" x2="2066.9761" y2="1892.7272">
					<stop  offset="0" style="stop-color:#444B8C"/>
					<stop  offset="0.9964" style="stop-color:#26264F"/>
				</linearGradient>
				<path style="fill:url(#SVGID_00000180328827901075550980000011210610079883006089_);" d="M1117.892,1760.918
					c67.203-265.497,330.549-425.498,590.987-350.511c265.218,76.363,417.06,363.727,336.479,634.61
					c-78.689,264.523-348.541,407.225-600.35,325.612C1197.55,2290.426,1052.217,2020.376,1117.892,1760.918z M1968.855,2021.583
					c66.599-226.698-60.471-466.806-281.944-531.235c-218.128-63.457-439.738,69.737-496.922,292.655
					c-56.088,218.641,66.391,446.54,275.34,513.675C1677.371,2364.807,1903.569,2243.814,1968.855,2021.583z"/>
				<path style="opacity:0.3;fill:#D8DEE8;" d="M1991.327,2006.86l112.071,34.139c7.69,35.744,22.641,56.222,37.688,68.695
					c56.608,46.926,132.198-4.253,237.655,50.771c52.919,27.612,42.864,45.183,92.466,64.449
					c82.005,31.851,119.543-12.27,192.117,16.722c73.407,29.324,80.644,92.695,122.277,90.421
					c17.809-0.972,40.737-13.928,66.301-63.05l18.384,5.6c22.418,6.829,34.598,30.069,27.19,51.865l-4.647,13.667
					c-7.386,21.723-31.465,33.728-53.766,26.858l-874.519-269.361L1991.327,2006.86z"/>
				<path style="opacity:0.56;fill:#FFFFFF;" d="M1444.577,2333.011c219.332,70.584,453.504-54.412,521.218-284.381
					c69.124-234.758-62.464-483.474-291.902-550.095c-225.851-65.58-455.107,72.484-514.146,303.188
					C1101.88,2027.852,1228.552,2263.492,1444.577,2333.011z"/>
				
					<linearGradient id="SVGID_00000056406734660674004530000008745865076072357777_" gradientUnits="userSpaceOnUse" x1="-6733.561" y1="3448.1213" x2="-7219.3804" y2="2904.1699" gradientTransform="matrix(-0.8705 0.4922 0.4922 0.8705 -6104.4209 2747.6741)">
					<stop  offset="0" style="stop-color:#444B8C"/>
					<stop  offset="0.9964" style="stop-color:#26264F"/>
				</linearGradient>
				<path style="fill:url(#SVGID_00000056406734660674004530000008745865076072357777_);" d="M1100.867,1783.688
					c67.203-265.497,330.548-425.498,590.987-350.512c265.219,76.364,417.06,363.727,336.479,634.61
					c-78.69,264.524-348.542,407.226-600.35,325.612C1180.526,2313.195,1035.193,2043.146,1100.867,1783.688z M1951.831,2044.352
					c66.598-226.699-60.471-466.806-281.945-531.235c-218.128-63.456-439.737,69.737-496.923,292.655
					c-56.088,218.641,66.391,446.54,275.341,513.675C1660.347,2387.576,1886.545,2266.583,1951.831,2044.352z"/>
				
					<linearGradient id="SVGID_00000153691206902198193960000004544854747933731487_" gradientUnits="userSpaceOnUse" x1="-7447.7192" y1="2653.9214" x2="-6788.8281" y2="3379.2551" gradientTransform="matrix(-0.8705 0.4922 0.4922 0.8705 -6104.4209 2747.6741)">
					<stop  offset="0" style="stop-color:#444B8C"/>
					<stop  offset="0.9964" style="stop-color:#26264F"/>
				</linearGradient>
				<path style="fill:url(#SVGID_00000153691206902198193960000004544854747933731487_);" d="M1126.323,1791.485
					c63.692-250.436,312.296-400.905,557.745-329.974c249.69,72.157,392.751,342.752,317.164,597.974
					c-73.913,249.569-328.308,384.642-566.077,307.815C1201.268,2291.728,1063.999,2036.54,1126.323,1791.485z M1951.831,2044.352
					c66.598-226.699-60.471-466.806-281.945-531.235c-218.128-63.456-439.737,69.737-496.923,292.655
					c-56.088,218.641,66.391,446.54,275.341,513.675C1660.347,2387.576,1886.545,2266.583,1951.831,2044.352z"/>
			</g>
			
				<linearGradient id="SVGID_00000049900304614752021110000005461097673478290591_" gradientUnits="userSpaceOnUse" x1="-5446.4976" y1="637.7057" x2="-5428.2188" y2="534.2411" gradientTransform="matrix(-0.8553 -0.5182 -0.5182 0.8553 -1479.6936 -1003.974)">
				<stop  offset="0" style="stop-color:#FFC444"/>
				<stop  offset="0.9964" style="stop-color:#F36F56"/>
			</linearGradient>
			<path style="fill:url(#SVGID_00000049900304614752021110000005461097673478290591_);" d="M2915.63,2300.378l-8.883-22.077
				c0,0-14.501,0.884-26.401-7.649c-6.484-4.65-17.991-6.035-21.336-5.106c-3.344,0.927-15.974,0.375-1.577,7.244
				c14.395,6.867,14.282,11.97,8.282,17.607c-6,5.636-28.834,17.763-37.052,18.346c-8.219,0.584,6.641,13.296,14.929,14.92
				c8.289,1.621,21.881,3.675,38.696-6.226C2888.421,2313.827,2915.63,2300.378,2915.63,2300.378z"/>
			<g>
				
					<linearGradient id="SVGID_00000026863891925040016450000002419099502120983695_" gradientUnits="userSpaceOnUse" x1="5484.3745" y1="1565.6266" x2="5496.9741" y2="1750.2109" gradientTransform="matrix(1 0 0 1 -2798.4924 0)">
					<stop  offset="0" style="stop-color:#444B8C"/>
					<stop  offset="0.9964" style="stop-color:#26264F"/>
				</linearGradient>
				<path style="fill:url(#SVGID_00000026863891925040016450000002419099502120983695_);" d="M2665.055,1674.61
					c-0.719,15.117,6.257,28.532,17.692,33.981c7.289,3.472,14.445,2.781,18.179,2.098c6.924-12.945,13.848-25.892,20.771-38.837
					c-7.433,0.719-15.117,1.321-23.039,1.777C2686.981,1674.301,2675.765,1674.602,2665.055,1674.61z"/>
				
					<linearGradient id="SVGID_00000028293264786368575230000005318712217405087620_" gradientUnits="userSpaceOnUse" x1="5441.5713" y1="1957.8145" x2="5441.5713" y2="1497.637" gradientTransform="matrix(1 0 0 1 -2798.4924 0)">
					<stop  offset="0" style="stop-color:#444B8C"/>
					<stop  offset="0.9964" style="stop-color:#26264F"/>
				</linearGradient>
				<path style="fill:url(#SVGID_00000028293264786368575230000005318712217405087620_);" d="M2677.771,1705.604
					c0,0-23.341,262.04-105.147,303.992c2.098,8.39,0,76.562,0,76.562s76.259-22.962,80.606-21.444
					c4.347,1.517,92.357-144.361,47.697-354.025L2677.771,1705.604z"/>
			</g>
		</g>
		<g>
			<g>
				
					<linearGradient id="SVGID_00000062880119520398665150000010466654879708027802_" gradientUnits="userSpaceOnUse" x1="2570.5857" y1="601.4904" x2="2364.5291" y2="1491.8075">
					<stop  offset="0" style="stop-color:#D8DEE8"/>
					<stop  offset="1" style="stop-color:#FFFFFF"/>
				</linearGradient>
				<path style="fill:url(#SVGID_00000062880119520398665150000010466654879708027802_);" d="M1983.039,679.402v503.917
					c0,16.73,13.55,30.292,30.229,30.292h964.611c14.52,0,26.268-12.616,26.268-28.181v-468.8L1983.039,679.402z"/>
				
					<linearGradient id="SVGID_00000031913837638178356080000011018450471386362033_" gradientUnits="userSpaceOnUse" x1="2571.5212" y1="557.9495" x2="2150.3423" y2="1246.4856">
					<stop  offset="0" style="stop-color:#FF9085"/>
					<stop  offset="1" style="stop-color:#FB6FBB"/>
				</linearGradient>
				<path style="fill:url(#SVGID_00000031913837638178356080000011018450471386362033_);" d="M2977.879,656.046l-964.611-39.38
					c-16.68-0.681-30.229,12.328-30.229,29.058v51.635l1021.108,35.977v-48.037C3004.147,669.735,2992.399,656.639,2977.879,656.046
					z"/>
				<path style="fill:#FFFFFF;" d="M2052.312,658.471c0,7.403-5.975,13.182-13.352,12.908c-7.385-0.274-13.377-6.509-13.377-13.925
					c0-7.416,5.992-13.195,13.377-12.907C2046.336,644.835,2052.312,651.069,2052.312,658.471z"/>
			</g>
			<g>
				<polygon style="fill:#FFFFFF;" points="2190.489,1148.334 2114.834,1147.992 2114.834,773.183 2190.489,775.478 				"/>
				
					<linearGradient id="SVGID_00000093878473764046870150000008199876176114953347_" gradientUnits="userSpaceOnUse" x1="2193.0413" y1="933.1752" x2="2097.0579" y2="1232.7102">
					<stop  offset="0" style="stop-color:#FF9085"/>
					<stop  offset="1" style="stop-color:#FB6FBB"/>
				</linearGradient>
				<polygon style="fill:url(#SVGID_00000093878473764046870150000008199876176114953347_);" points="2190.489,1148.334 
					2114.834,1147.992 2114.834,970.041 2190.489,971.31 				"/>
				<polygon style="fill:#FFFFFF;" points="2294.446,1148.804 2219.879,1148.467 2219.879,776.369 2294.446,778.631 				"/>
				
					<linearGradient id="SVGID_00000139978255752244471650000008589273877373376656_" gradientUnits="userSpaceOnUse" x1="2279.5652" y1="1034.5571" x2="2226.333" y2="1200.6786">
					<stop  offset="0" style="stop-color:#FF9085"/>
					<stop  offset="1" style="stop-color:#FB6FBB"/>
				</linearGradient>
				<polygon style="fill:url(#SVGID_00000139978255752244471650000008589273877373376656_);" points="2294.446,1148.804 
					2219.879,1148.467 2219.879,1060.135 2294.446,1060.929 				"/>
				<polygon style="fill:#FFFFFF;" points="2396.917,1149.267 2323.415,1148.935 2323.415,779.51 2396.917,781.739 				"/>
				
					<linearGradient id="SVGID_00000039129157825226100790000009879280383376503997_" gradientUnits="userSpaceOnUse" x1="2374.05" y1="1082.7527" x2="2341.0759" y2="1185.6549">
					<stop  offset="0" style="stop-color:#FF9085"/>
					<stop  offset="1" style="stop-color:#FB6FBB"/>
				</linearGradient>
				<polygon style="fill:url(#SVGID_00000039129157825226100790000009879280383376503997_);" points="2396.917,1149.267 
					2323.415,1148.935 2323.415,1102.894 2396.917,1103.462 				"/>
				<polygon style="fill:#FFFFFF;" points="2497.935,1149.723 2425.474,1149.396 2425.474,782.605 2497.935,784.803 				"/>
				
					<linearGradient id="SVGID_00000162337422006766179570000010200480918098951611_" gradientUnits="userSpaceOnUse" x1="2523.7505" y1="812.2634" x2="2376.2512" y2="1272.5642">
					<stop  offset="0" style="stop-color:#FF9085"/>
					<stop  offset="1" style="stop-color:#FB6FBB"/>
				</linearGradient>
				<polygon style="fill:url(#SVGID_00000162337422006766179570000010200480918098951611_);" points="2497.935,1149.723 
					2425.474,1149.396 2425.474,862.058 2497.935,863.851 				"/>
				<polygon style="fill:#FFFFFF;" points="2597.529,1150.173 2526.088,1149.851 2526.088,785.657 2597.529,787.824 				"/>
				
					<linearGradient id="SVGID_00000046321964878858834540000013762611530765758142_" gradientUnits="userSpaceOnUse" x1="2616.906" y1="851.6274" x2="2485.9321" y2="1260.3578">
					<stop  offset="0" style="stop-color:#FF9085"/>
					<stop  offset="1" style="stop-color:#FB6FBB"/>
				</linearGradient>
				<polygon style="fill:url(#SVGID_00000046321964878858834540000013762611530765758142_);" points="2597.529,1150.173 
					2526.088,1149.851 2526.088,896.968 2597.529,898.571 				"/>
				<polygon style="fill:#FFFFFF;" points="2695.729,1150.617 2625.287,1150.299 2625.287,788.666 2695.729,790.802 				"/>
				
					<linearGradient id="SVGID_00000051384103072638950120000012871442994222898321_" gradientUnits="userSpaceOnUse" x1="2726.7734" y1="789.1387" x2="2569.2483" y2="1280.7271">
					<stop  offset="0" style="stop-color:#FF9085"/>
					<stop  offset="1" style="stop-color:#FB6FBB"/>
				</linearGradient>
				<polygon style="fill:url(#SVGID_00000051384103072638950120000012871442994222898321_);" points="2695.729,1150.617 
					2625.287,1150.299 2625.287,841.247 2695.729,843.12 				"/>
				<polygon style="fill:#FFFFFF;" points="2792.566,1151.055 2723.101,1150.741 2723.101,791.633 2792.566,793.739 				"/>
				
					<linearGradient id="SVGID_00000141454512073287779000000006876747012823317380_" gradientUnits="userSpaceOnUse" x1="2806.354" y1="889.1901" x2="2691.0237" y2="1249.1007">
					<stop  offset="0" style="stop-color:#FF9085"/>
					<stop  offset="1" style="stop-color:#FB6FBB"/>
				</linearGradient>
				<polygon style="fill:url(#SVGID_00000141454512073287779000000006876747012823317380_);" points="2792.566,1151.055 
					2723.101,1150.741 2723.101,930.161 2792.566,931.576 				"/>
				<polygon style="fill:#FFFFFF;" points="2888.066,1151.486 2819.559,1151.177 2819.559,794.558 2888.066,796.636 				"/>
				
					<linearGradient id="SVGID_00000032607566235009632500000014829842479837558972_" gradientUnits="userSpaceOnUse" x1="2882.9287" y1="998.563" x2="2813.7373" y2="1214.488">
					<stop  offset="0" style="stop-color:#FF9085"/>
					<stop  offset="1" style="stop-color:#FB6FBB"/>
				</linearGradient>
				<polygon style="fill:url(#SVGID_00000032607566235009632500000014829842479837558972_);" points="2888.066,1151.486 
					2819.559,1151.177 2819.559,1027.366 2888.066,1028.289 				"/>
			</g>
		</g>
	</g>
</g>
</svg>
